<svg width="220" height="53" viewBox="0 0 220 53" fill="none" xmlns="http://www.w3.org/2000/svg">
<g clip-path="url(#clip0_1_492)">
<path d="M33.2979 34.6042H34.4208V28.1646H33.2979V34.6042ZM76.0833 28.1646H77.7104V29.2875H77.2062V34.6042H69.8271C69.3917 35.0625 68.75 35.3605 68.0625 35.3605C67.3979 35.3605 66.7562 35.0625 66.3208 34.6042H40.0583C38.8208 34.6042 37.8125 33.5959 37.8125 32.3584C37.8125 31.1209 38.8208 30.1355 40.0583 30.1355H40.7V29.7459H41.8229V33.5042H48.8125V30.1355H49.9354V33.5042H57.5896V32.175C57.5896 31.8542 57.3375 31.6021 57.0167 31.6021H53.3729L52.9833 30.5021L54.2667 28.1646H55.4583L54.2208 30.5021H57.1312C57.9792 30.5021 58.6667 31.1896 58.6667 32.0375V33.5042H61.5542V28.1646H62.6771V33.5042H65.7021C65.6562 33.3438 65.6562 33.1834 65.6562 33C65.6562 31.648 66.7333 30.5709 68.0396 30.5709C69.3917 30.5709 70.4687 31.625 70.4687 33C70.4687 33.1834 70.4458 33.3438 70.4229 33.5042H73.3333V28.1646H74.4562V33.5042H76.0833V28.1646ZM40.7 31.2584H40.0583C39.4396 31.2584 38.9354 31.7625 38.9354 32.3813C38.9354 33 39.4396 33.5042 40.0583 33.5042H40.7V31.2584ZM69.3458 32.9771C69.3458 32.2209 68.7958 31.6709 68.0396 31.6709C67.3062 31.6709 66.7792 32.2438 66.7792 32.9771C66.7792 33.6875 67.3292 34.2605 68.0396 34.2605C68.7729 34.2605 69.3458 33.7105 69.3458 32.9771ZM80.85 32.3584C80.85 31.1209 81.8583 30.1355 83.0729 30.1355H83.7146V29.7459H84.8375V33.5042H91.3V30.1355H92.4229V34.6042H83.0958C81.8354 34.6042 80.85 33.5959 80.85 32.3584ZM81.95 32.3584C81.95 32.9771 82.4542 33.4813 83.0729 33.4813H83.7146V31.2355H83.0729C82.4542 31.2584 81.95 31.7625 81.95 32.3584ZM125.4 34.6042H126.523V28.1646H125.4V34.6042ZM143.023 28.9209H141.923V28.7146C141.923 28.4625 142.037 28.325 142.358 28.325H142.771V27.9584H142.312C141.694 27.9584 141.304 28.2334 141.304 28.9438V29.5167H143.046V28.9209H143.023ZM129.938 32.3584C129.938 31.1209 130.946 30.1355 132.183 30.1355H132.825V29.7459H133.948V33.5042H141.671V30.1355H142.794V33.5042H146.552V30.1355H147.675V33.5042H151.25H151.273C151.181 33.298 151.113 33.0459 151.113 32.7938C151.113 31.8542 151.869 31.098 152.808 31.098C153.748 31.098 154.504 31.8542 154.504 32.7938C154.504 33.0459 154.435 33.275 154.344 33.5042H154.39H155.1C155.169 33.275 155.215 33.0459 155.215 32.7938C155.215 31.4646 154.137 30.3875 152.808 30.3875C152.327 30.3875 151.892 30.525 151.502 30.7771L150.883 29.7917C151.433 29.425 152.098 29.2188 152.808 29.2188C154.779 29.2188 156.36 30.823 156.36 32.7709C156.36 33.023 156.337 33.2521 156.292 33.4813H159.569V28.1417H161.196V29.2646H160.692V34.6042H132.183C130.946 34.6042 129.938 33.5959 129.938 32.3584ZM152.121 32.7938C152.121 33.1834 152.442 33.5042 152.831 33.5042C153.221 33.5042 153.542 33.1834 153.542 32.7938C153.542 32.4042 153.221 32.0834 152.831 32.0834C152.442 32.0834 152.121 32.4042 152.121 32.7938ZM131.06 32.3584C131.06 32.9771 131.565 33.4813 132.183 33.4813H132.825V31.2355H132.183C131.542 31.2584 131.06 31.7625 131.06 32.3584ZM162.044 28.1646V34.6042H163.167V28.1646H162.044ZM7.69999 35.7042C7.69999 36.025 7.97499 36.3 8.29582 36.3C8.61666 36.3 8.89166 36.025 8.89166 35.7042C8.89166 35.3834 8.61666 35.1084 8.29582 35.1084C7.95207 35.1084 7.69999 35.3834 7.69999 35.7042ZM9.60207 35.1084C9.28124 35.1084 9.00624 35.3834 9.00624 35.7042C9.00624 36.025 9.28124 36.3 9.60207 36.3C9.92291 36.3 10.1979 36.025 10.1979 35.7042C10.1979 35.3834 9.92291 35.1084 9.60207 35.1084ZM26.5375 29.1959C26.8583 29.1959 27.1333 28.9209 27.1333 28.6C27.1333 28.2792 26.8583 28.0042 26.5375 28.0042C26.2167 28.0042 25.9417 28.2792 25.9417 28.6C25.9417 28.9438 26.1937 29.1959 26.5375 29.1959ZM48.6062 35.1084C48.2854 35.1084 48.0104 35.3834 48.0104 35.7042C48.0104 36.025 48.2854 36.3 48.6062 36.3C48.9271 36.3 49.2021 36.025 49.2021 35.7042C49.2021 35.3834 48.9271 35.1084 48.6062 35.1084ZM50.5083 35.7042C50.5083 35.3834 50.2333 35.1084 49.9125 35.1084C49.5917 35.1084 49.3167 35.3834 49.3167 35.7042C49.3167 36.025 49.5917 36.3 49.9125 36.3C50.2333 36.3 50.5083 36.025 50.5083 35.7042ZM131.977 29.1959C132.298 29.1959 132.573 28.9209 132.573 28.6C132.573 28.2792 132.298 28.0042 131.977 28.0042C131.656 28.0042 131.381 28.2792 131.381 28.6C131.404 28.9438 131.656 29.1959 131.977 29.1959ZM133.283 29.1959C133.604 29.1959 133.879 28.9209 133.879 28.6C133.879 28.2792 133.604 28.0042 133.283 28.0042C132.962 28.0042 132.688 28.2792 132.688 28.6C132.688 28.9438 132.962 29.1959 133.283 29.1959ZM90.475 35.1084C90.1542 35.1084 89.8792 35.3834 89.8792 35.7042C89.8792 36.025 90.1542 36.3 90.475 36.3C90.7958 36.3 91.0708 36.025 91.0708 35.7042C91.0708 35.3834 90.8187 35.1084 90.475 35.1084ZM92.3771 35.7042C92.3771 35.3834 92.1021 35.1084 91.7812 35.1084C91.4604 35.1084 91.1854 35.3834 91.1854 35.7042C91.1854 36.025 91.4604 36.3 91.7812 36.3C92.1021 36.3 92.3771 36.025 92.3771 35.7042ZM146.392 35.1084C146.071 35.1084 145.796 35.3834 145.796 35.7042C145.796 36.025 146.071 36.3 146.392 36.3C146.712 36.3 146.988 36.025 146.988 35.7042C146.988 35.3834 146.712 35.1084 146.392 35.1084ZM147.102 35.7042C147.102 36.025 147.377 36.3 147.698 36.3C148.019 36.3 148.294 36.025 148.294 35.7042C148.294 35.3834 148.019 35.1084 147.698 35.1084C147.354 35.1084 147.102 35.3834 147.102 35.7042ZM82.8896 29.1959C83.2104 29.1959 83.4854 28.9209 83.4854 28.6C83.4854 28.2792 83.2104 28.0042 82.8896 28.0042C82.5687 28.0042 82.2937 28.2792 82.2937 28.6C82.2937 28.9438 82.5687 29.1959 82.8896 29.1959ZM84.1958 29.1959C84.5167 29.1959 84.7917 28.9209 84.7917 28.6C84.7917 28.2792 84.5167 28.0042 84.1958 28.0042C83.875 28.0042 83.6 28.2792 83.6 28.6C83.6 28.9438 83.8521 29.1959 84.1958 29.1959ZM97.2583 31.6709C97.2583 30.823 96.5708 30.1355 95.7229 30.1355H94.6917L94.4167 31.2355H95.5625C95.8833 31.2355 96.1354 31.4875 96.1354 31.8084V33.5042H93.2937V34.6271H97.2583V31.6709ZM39.875 29.1959C40.1958 29.1959 40.4708 28.9209 40.4708 28.6C40.4708 28.2792 40.1958 28.0042 39.875 28.0042C39.5542 28.0042 39.2792 28.2792 39.2792 28.6C39.2792 28.9438 39.5542 29.1959 39.875 29.1959ZM41.1812 29.1959C41.5021 29.1959 41.7771 28.9209 41.7771 28.6C41.7771 28.2792 41.5021 28.0042 41.1812 28.0042C40.8604 28.0042 40.5854 28.2792 40.5854 28.6C40.5854 28.9438 40.8375 29.1959 41.1812 29.1959ZM1.94791 29.1959C2.26874 29.1959 2.54374 28.9209 2.54374 28.6C2.54374 28.2792 2.26874 28.0042 1.94791 28.0042C1.62707 28.0042 1.35207 28.2792 1.35207 28.6C1.35207 28.9438 1.62707 29.1959 1.94791 29.1959ZM3.25416 29.1959C3.57499 29.1959 3.84999 28.9209 3.84999 28.6C3.84999 28.2792 3.57499 28.0042 3.25416 28.0042C2.93332 28.0042 2.65832 28.2792 2.65832 28.6C2.65832 28.9438 2.91041 29.1959 3.25416 29.1959ZM-0.114594 32.3584C-0.114594 31.1209 0.893739 30.1355 2.10832 30.1355H2.74999V29.7459H3.89582V33.5042H8.93749V30.1355H10.0604V34.6042H2.13124C0.893741 34.6042 -0.114594 33.5959 -0.114594 32.3584ZM1.00832 32.3584C1.00832 32.9771 1.51249 33.4813 2.13124 33.4813H2.77291V31.2355H2.13124C1.51249 31.2584 1.00832 31.7625 1.00832 32.3584ZM11.55 36.3459C11.3437 36.3459 11.1146 36.323 10.9771 36.2771V35.1771C11.1375 35.223 11.275 35.223 11.4125 35.223C11.8479 35.223 12.0083 34.9938 12.0083 34.4438V30.1125H13.1312V33.4813H20.1896V32.1521C20.1896 31.8313 19.9375 31.5792 19.6167 31.5792H15.9729L15.5833 30.4792L16.8667 28.1417H18.0583L16.8208 30.4792H19.7312C20.5792 30.4792 21.2667 31.1667 21.2667 32.0146V33.4813H24.3833C24.1771 33.1605 24.0854 32.7709 24.0854 32.3584C24.0854 31.1209 25.0937 30.1125 26.3083 30.1125H26.95H27.2479H28.05V33.4813H30.8229V28.1417H32.45V29.2646H31.9229V34.6042H13.0854C13.0625 35.8188 12.6042 36.3459 11.55 36.3459ZM25.2083 32.3584C25.2083 32.9771 25.7125 33.4813 26.3312 33.4813H26.9729V31.2355H26.3312C25.7125 31.2584 25.2083 31.7625 25.2083 32.3584ZM100.879 34.6042H100.26C99.0229 34.6042 98.0146 33.5959 98.0146 32.3584C98.0146 31.1209 99.0229 30.1355 100.26 30.1355H100.902H101.2H102.002V33.5042H105.348L104.362 30.9834C105.119 30.3188 105.875 29.8605 106.815 29.8605C107.731 29.8605 108.533 30.3188 109.267 31.0063L108.304 33.5271H111.146C111.765 33.5271 112.269 33.023 112.269 32.4042V29.5396H113.392V32.4042C113.392 33.023 113.896 33.5271 114.515 33.5271C115.133 33.5271 115.637 33.023 115.637 32.4042V30.4792H116.76V32.4042C116.76 33.023 117.265 33.5271 117.883 33.5271C118.502 33.5271 119.006 33.023 119.006 32.4042V29.5396H120.129V32.4042C120.129 33.023 120.633 33.5271 121.252 33.5271H122.971V28.1875H124.598V29.3105H124.094V34.6042H121.252C120.587 34.6042 119.992 34.3063 119.579 33.848C119.167 34.3063 118.571 34.6042 117.906 34.6042C117.242 34.6042 116.646 34.3063 116.233 33.848C115.821 34.3063 115.225 34.6042 114.56 34.6042C113.896 34.6042 113.3 34.3063 112.887 33.848C112.475 34.3063 111.879 34.6042 111.215 34.6042H102.048C101.979 35.6584 101.452 36.3459 100.031 36.3459C99.5958 36.3459 99.3667 36.3 98.8625 36.1625V35.0625C99.2521 35.1771 99.5958 35.2459 99.9396 35.2459C100.49 35.2459 100.81 35.1542 100.879 34.6042ZM105.6 31.4417L106.333 33.4813H107.296L108.029 31.4188C107.594 31.1209 107.273 31.0063 106.815 31.0063C106.356 31.0063 106.012 31.1438 105.6 31.4417ZM100.902 33.5042V31.2584H100.26C99.6417 31.2584 99.1375 31.7625 99.1375 32.3813C99.1375 33 99.6417 33.5042 100.26 33.5042H100.902Z" fill="#4D4D4F"/>
<path d="M9.2354 41.9146V44.4354C8.6854 44.6417 7.9979 44.7792 7.35623 44.7792C6.27915 44.7792 5.31665 44.3896 5.31665 43.3354C5.31665 42.3729 6.14165 41.8688 7.33332 41.8688C7.56248 41.8688 7.8604 41.8917 8.18123 41.9375V41.8688C8.18123 41.3875 7.76874 41.25 7.1729 41.25C6.73749 41.25 6.0729 41.4334 5.6604 41.6396L5.7979 40.5396C6.14165 40.3563 6.73748 40.2188 7.33332 40.2188C8.4104 40.1959 9.2354 40.6542 9.2354 41.9146ZM8.15832 42.8084C7.95207 42.7625 7.67707 42.7167 7.42498 42.7167C6.87498 42.7167 6.41665 42.8542 6.41665 43.2667C6.41665 43.6563 6.82915 43.8167 7.35623 43.8167C7.63123 43.8167 7.92915 43.7709 8.15832 43.7021V42.8084ZM12.925 43.6104C12.6041 43.7021 12.3521 43.725 12.1229 43.725C11.5271 43.725 11.275 43.4959 11.275 42.6938V40.3334H10.1979V42.9688C10.1979 44.3209 11.0458 44.7563 12.1687 44.7563C12.925 44.7563 13.4062 44.6417 14.025 44.4354V40.3334H12.9479L12.925 43.6104ZM17.9896 38.4313H19.0667V44.5271C18.5396 44.6646 17.9437 44.7563 17.325 44.7563C15.7208 44.7563 14.8042 43.7709 14.8042 42.4875C14.8042 41.2042 15.7667 40.1959 17.2562 40.1959C17.4396 40.1959 17.7146 40.2188 18.0125 40.2646V38.4313H17.9896ZM17.9896 41.3417C17.7375 41.2729 17.5083 41.25 17.325 41.25C16.4771 41.25 15.9271 41.6625 15.9271 42.4875C15.9271 43.3125 16.4771 43.7021 17.325 43.7021C17.5312 43.7021 17.7604 43.6792 17.9896 43.6104V41.3417ZM20.2354 44.6875H21.3125V40.3563H20.2354V44.6875ZM33.2979 43.6104C32.9771 43.7021 32.725 43.725 32.4958 43.725C31.9 43.725 31.6479 43.4959 31.6479 42.6938V40.3334H30.5708V42.9688C30.5708 44.3209 31.4187 44.7563 32.5417 44.7563C33.2979 44.7563 33.7792 44.6417 34.3979 44.4354V40.3334H33.3208L33.2979 43.6104ZM36.9646 42.9229V41.3417H38.6146V40.3334H36.9646V38.7521H35.8875V40.3334H35.0854V41.3417H35.8875V43.2896C35.8875 44.3209 36.4146 44.6646 37.6292 44.6646H38.6375V43.6792H37.7208C37.1708 43.6792 36.9646 43.4959 36.9646 42.9229ZM41.4792 40.1959C41.25 40.1959 40.9291 40.2417 40.6083 40.2875V38.4542H39.5312V44.6875H40.6083V41.3417C40.9062 41.2959 41.2042 41.25 41.4333 41.25C42.075 41.25 42.3958 41.4792 42.3958 42.2813V44.6875H43.4729V41.9834C43.4729 40.5396 42.5792 40.1959 41.4792 40.1959ZM48.8812 42.4875C48.8812 43.7709 47.8729 44.7792 46.5437 44.7792C45.2146 44.7792 44.2062 43.7938 44.2062 42.4875C44.2062 41.2042 45.2146 40.1959 46.5437 40.1959C47.85 40.1959 48.8812 41.2042 48.8812 42.4875ZM47.7583 42.4875C47.7583 41.8229 47.3 41.25 46.5437 41.25C45.7875 41.25 45.3291 41.8229 45.3291 42.4875C45.3291 43.175 45.7875 43.725 46.5437 43.725C47.2771 43.7021 47.7583 43.175 47.7583 42.4875ZM52.9604 44.6875H54.0375V40.3563H52.9604V44.6875ZM56.6271 42.9229V41.3417H58.2771V40.3334H56.6271V38.7521H55.55V40.3334H54.7479V41.3417H55.55V43.2896C55.55 44.3209 56.0771 44.6646 57.2917 44.6646H58.3V43.6792H57.3833C56.8104 43.6792 56.6271 43.4959 56.6271 42.9229ZM61.8062 43.5188C61.4854 43.6104 61.2333 43.6334 61.0042 43.6334C60.4083 43.6334 60.1562 43.4042 60.1562 42.6021V40.3334H59.0792V42.9C59.0792 44.3209 59.8583 44.6875 60.9583 44.6875C61.2333 44.6875 61.5312 44.6646 61.8292 44.5959V44.6875C61.8292 45.1917 61.3708 45.4209 60.7062 45.4209C60.2937 45.4209 59.6062 45.2834 59.1937 45.1L59.4229 46.2229C59.7667 46.3375 60.3396 46.4063 60.6604 46.4063C62.3792 46.4063 62.9062 45.8792 62.9062 44.3438V40.3334H61.8292L61.8062 43.5188ZM66.6646 39.9209V40.3334H65.8625V41.3417H66.6646V44.6646H67.7417V41.3417H69.3916V40.3334H67.7417V40.1271C67.7417 39.6688 67.8333 39.4396 68.3833 39.4396H69.3916V38.4313H68.3604C67.1687 38.4313 66.6646 38.8896 66.6646 39.9209ZM74.3417 42.4875C74.3417 43.7709 73.3333 44.7792 72.0042 44.7792C70.675 44.7792 69.6666 43.7938 69.6666 42.4875C69.6666 41.2042 70.675 40.1959 72.0042 40.1959C73.3333 40.1959 74.3417 41.2042 74.3417 42.4875ZM73.2187 42.4875C73.2187 41.8229 72.7604 41.25 72.0042 41.25C71.2479 41.25 70.7896 41.8229 70.7896 42.4875C70.7896 43.175 71.2479 43.725 72.0042 43.725C72.7604 43.7021 73.2187 43.175 73.2187 42.4875ZM84.8375 40.1959C84.3792 40.1959 83.5542 40.2875 82.8896 40.425V44.6875H83.9667V41.3417C84.2646 41.2959 84.5625 41.25 84.7916 41.25C85.4333 41.25 85.7542 41.4792 85.7542 42.2813V44.6875H86.8312V41.9834C86.8542 40.5396 85.9375 40.1959 84.8375 40.1959ZM89.3521 42.9229V41.3417H91.0021V40.3334H89.3521V38.7521H88.275V40.3334H87.4729V41.3417H88.275V43.2896C88.275 44.3209 88.8021 44.6646 90.0166 44.6646H91.025V43.6792H90.1083C89.5354 43.6792 89.3521 43.4959 89.3521 42.9229ZM95.9292 42.8313H92.5146C92.6521 43.4271 93.1333 43.7021 93.8208 43.7021H93.9354C94.3937 43.7021 94.9667 43.5188 95.1958 43.3125L95.6771 44.275C95.2187 44.5271 94.6458 44.7563 93.7979 44.7563C92.4229 44.7563 91.4146 43.7709 91.4146 42.4646C91.4146 41.1354 92.4229 40.1729 93.7062 40.1729C95.0125 40.1959 95.975 41.1584 95.9292 42.8313ZM94.8062 41.9375C94.6917 41.4104 94.2562 41.1354 93.6833 41.1354C93.1104 41.1354 92.675 41.4792 92.5375 41.9375H94.8062ZM96.6854 44.6875H97.7625V38.4542H96.6854V44.6875ZM98.9312 44.6875H100.008V38.4542H98.9312V44.6875ZM105.325 42.8313H101.91C102.048 43.4271 102.529 43.7021 103.217 43.7021H103.331C103.79 43.7021 104.362 43.5188 104.592 43.3125L105.073 44.275C104.615 44.5271 104.042 44.7563 103.194 44.7563C101.819 44.7563 100.81 43.7709 100.81 42.4646C100.81 41.1354 101.819 40.1729 103.102 40.1729C104.431 40.1959 105.394 41.1584 105.325 42.8313ZM104.202 41.9375C104.087 41.4104 103.652 41.1354 103.079 41.1354C102.506 41.1354 102.071 41.4792 101.933 41.9375H104.202ZM108.212 41.25C108.602 41.25 108.946 41.3646 109.221 41.525L109.656 40.5625C109.221 40.3334 108.74 40.1959 108.167 40.1959C106.837 40.1959 105.852 41.1813 105.852 42.4875C105.852 43.7938 106.837 44.7792 108.167 44.7792C108.762 44.7792 109.221 44.6646 109.656 44.4354L109.221 43.45C108.946 43.6334 108.602 43.725 108.212 43.725C107.456 43.725 106.975 43.2438 106.975 42.4875C106.975 41.7542 107.456 41.25 108.212 41.25ZM111.833 42.9229V41.3417H113.483V40.3334H111.833V38.7521H110.756V40.3334H109.954V41.3417H110.756V43.2896C110.756 44.3209 111.283 44.6646 112.498 44.6646H113.506V43.6792H112.59C112.04 43.6792 111.833 43.4959 111.833 42.9229ZM117.012 43.6104C116.692 43.7021 116.44 43.725 116.21 43.725C115.615 43.725 115.362 43.4959 115.362 42.6938V40.3334H114.285V42.9688C114.285 44.3209 115.133 44.7563 116.256 44.7563C117.012 44.7563 117.494 44.6417 118.112 44.4354V40.3334H117.035L117.012 43.6104ZM122.971 41.9146V44.4354C122.421 44.6417 121.733 44.7792 121.092 44.7792C120.015 44.7792 119.052 44.3896 119.052 43.3354C119.052 42.3729 119.877 41.8688 121.069 41.8688C121.298 41.8688 121.596 41.8917 121.917 41.9375V41.8688C121.917 41.3875 121.504 41.25 120.908 41.25C120.473 41.25 119.808 41.4334 119.396 41.6396L119.533 40.5396C119.877 40.3563 120.473 40.2188 121.069 40.2188C122.146 40.1959 122.971 40.6542 122.971 41.9146ZM121.871 42.8084C121.665 42.7625 121.39 42.7167 121.137 42.7167C120.587 42.7167 120.129 42.8542 120.129 43.2667C120.129 43.6563 120.542 43.8167 121.069 43.8167C121.344 43.8167 121.642 43.7709 121.871 43.7021V42.8084ZM124.048 44.6875H125.125V38.4542H124.048V44.6875ZM141.419 42.4875C141.419 43.7709 140.41 44.7792 139.081 44.7792C137.752 44.7792 136.744 43.7938 136.744 42.4875C136.744 41.2042 137.752 40.1959 139.081 40.1959C140.41 40.1959 141.419 41.2042 141.419 42.4875ZM140.296 42.4875C140.296 41.8229 139.837 41.25 139.081 41.25C138.325 41.25 137.867 41.8229 137.867 42.4875C137.867 43.175 138.325 43.725 139.081 43.725C139.837 43.7021 140.296 43.175 140.296 42.4875ZM146.483 42.4875C146.483 43.7709 145.521 44.7792 144.031 44.7792C143.848 44.7792 143.596 44.7563 143.275 44.7104V46.3604H142.198V40.425C142.725 40.2646 143.321 40.1959 143.94 40.1959C145.567 40.1959 146.483 41.1813 146.483 42.4875ZM145.36 42.4875C145.36 41.6625 144.81 41.25 143.962 41.25C143.756 41.25 143.527 41.2959 143.298 41.3417V43.6334C143.55 43.7021 143.779 43.725 143.962 43.725C144.833 43.7021 145.36 43.3125 145.36 42.4875ZM151.571 42.8313H148.156C148.294 43.4271 148.775 43.7021 149.462 43.7021H149.577C150.035 43.7021 150.608 43.5188 150.837 43.3125L151.319 44.275C150.86 44.5271 150.287 44.7563 149.44 44.7563C148.065 44.7563 147.056 43.7709 147.056 42.4646C147.056 41.1354 148.065 40.1729 149.348 40.1729C150.677 40.1959 151.617 41.1584 151.571 42.8313ZM150.448 41.9375C150.333 41.4104 149.898 41.1354 149.325 41.1354C148.752 41.1354 148.317 41.4792 148.179 41.9375H150.448ZM157.048 42.9229V41.3417H158.698V40.3334H157.048V38.7521H155.971V40.3334H155.146V41.3417H155.948V43.2896C155.948 44.3209 156.475 44.6646 157.69 44.6646H158.698V43.6792H157.781C157.231 43.6792 157.048 43.4959 157.048 42.9229ZM162.09 43.5188C161.769 43.6104 161.517 43.6334 161.287 43.6334C160.692 43.6334 160.44 43.4042 160.44 42.6021V40.3334H159.362V42.9C159.362 44.3209 160.142 44.6875 161.242 44.6875C161.517 44.6875 161.815 44.6646 162.112 44.5959V44.6875C162.112 45.1917 161.654 45.4209 160.99 45.4209C160.577 45.4209 159.89 45.2834 159.477 45.1L159.706 46.2229C160.05 46.3375 160.623 46.4063 160.944 46.4063C162.662 46.4063 163.19 45.8792 163.19 44.3438V40.3334H162.112L162.09 43.5188ZM75.1437 41.4792V44.6875H76.2208V41.6396C76.2208 41.4563 76.3583 41.3188 76.5416 41.3188C76.9771 41.3188 77.6416 41.3188 77.6416 41.3188V40.2875H76.3125C75.6937 40.2875 75.1437 40.8146 75.1437 41.4792ZM49.6833 41.4792V44.6875H50.7604V41.6396C50.7604 41.4563 50.8979 41.3188 51.0812 41.3188C51.5167 41.3188 52.1812 41.3188 52.1812 41.3188V40.2875H50.875C50.2104 40.2875 49.6833 40.8146 49.6833 41.4792ZM133.833 41.4792V44.6875H134.91V41.6396C134.91 41.4563 135.048 41.3188 135.231 41.3188C135.667 41.3188 136.331 41.3188 136.331 41.3188V40.2875H135.002C134.36 40.2875 133.833 40.8146 133.833 41.4792ZM152.281 41.4792V44.6875H153.358V41.6396C153.358 41.4563 153.496 41.3188 153.679 41.3188C154.115 41.3188 154.779 41.3188 154.779 41.3188V40.2875H153.45C152.831 40.2875 152.281 40.8146 152.281 41.4792ZM20.7625 38.5C20.4417 38.5 20.1667 38.775 20.1667 39.0959C20.1667 39.4167 20.4417 39.6917 20.7625 39.6917C21.0833 39.6917 21.3583 39.4167 21.3583 39.0959C21.3583 38.775 21.1062 38.5 20.7625 38.5ZM53.5104 38.5C53.1896 38.5 52.9146 38.775 52.9146 39.0959C52.9146 39.4167 53.1896 39.6917 53.5104 39.6917C53.8312 39.6917 54.1062 39.4167 54.1062 39.0959C54.0833 38.775 53.8312 38.5 53.5104 38.5Z" fill="#4D4D4F"/>
<path d="M4.65207 42.9C4.65207 44.0916 3.59791 44.7562 2.17707 44.7562C1.30624 44.7562 0.41249 44.5271 -0.114594 44.2062L0.320824 43.2208C0.75624 43.4958 1.51249 43.7021 2.15416 43.7021C2.91041 43.7021 3.48332 43.45 3.48332 42.8771C3.48332 42.35 3.02499 42.1666 2.29166 42.0062L1.78749 41.8687C0.664574 41.5937 0.0687405 40.9291 0.0687405 40.0125C0.0687405 39.0041 0.985406 38.3167 2.33749 38.3167C3.11666 38.3167 3.98749 38.5458 4.51457 38.8896L4.07916 39.875C3.62082 39.5771 2.93332 39.3937 2.31457 39.3937C1.71874 39.3937 1.21457 39.6229 1.21457 40.0583C1.21457 40.4708 1.51249 40.6771 2.19999 40.8604L2.72707 40.9979C3.78124 41.25 4.65207 41.8 4.65207 42.9ZM27.7979 38.4312L30.1125 44.6646H28.9437L28.4167 43.1979H25.8271L25.3 44.6646H24.1312L26.4458 38.4312H27.7979ZM28.05 42.1666L27.1333 39.5771L26.2167 42.1666H28.05ZM133.283 40.3562C133.283 41.3875 132.55 42.35 130.992 42.35H129.754V44.6875H128.654V38.4541H130.992C132.573 38.4312 133.283 39.3708 133.283 40.3562ZM132.115 40.3792C132.115 39.7604 131.679 39.4854 130.762 39.4854H129.777V41.3187H130.762C131.565 41.3187 132.115 41.0896 132.115 40.3792ZM80.6667 44.6875H81.7438V38.4541H80.6667V44.6875Z" fill="#006E63"/>
<path d="M210.558 18.3563C211.796 11.8708 213.01 5.31667 207.74 2.72708C198.779 -1.65 175.954 -1.46667 173.387 10.4042C172.906 12.6729 173.846 16.6833 175.404 20.4188C175.977 16.4313 179.483 10.3583 195.112 9.35C205.104 8.70833 209.229 12.7417 210.558 18.3563Z" fill="#0065A1"/>
<path d="M219.885 11.6646C219.748 7.24166 215.371 4.58333 210.192 3.00208C210.765 3.50624 211.269 4.05624 211.704 4.72082C212.965 6.62291 213.01 10.45 212.415 14.4146C208.335 42.3729 197.748 41.8229 196.854 41.8458C208.404 45.8104 212.735 36.1167 213.285 35.0625C213.583 34.5125 220.206 22.0458 219.885 11.6646Z" fill="#006E63"/>
<path d="M198.619 19.2959C199.1 19.2042 199.604 19.1584 200.131 19.1584C202.446 19.1584 204.531 20.0521 206.112 21.4959C204.669 18.5167 201.644 16.4771 198.137 16.4771C197.885 16.4771 197.633 16.5 197.404 16.5C198.16 15.4 199.26 14.575 200.544 14.1396C198.573 13.8646 196.579 14.5979 195.25 16.1104C195.25 16.0188 195.25 15.9271 195.25 15.8354C195.25 14.6896 194.906 13.6125 194.31 12.7417C193.715 13.6354 193.371 14.6896 193.371 15.8354C193.371 15.9271 193.371 16.0188 193.371 16.1104C192.042 14.5979 190.025 13.8646 188.077 14.1396C189.36 14.575 190.46 15.4 191.217 16.5C190.965 16.4771 190.735 16.4771 190.483 16.4771C186.977 16.4771 183.952 18.5167 182.508 21.4959C184.09 20.0521 186.198 19.1584 188.49 19.1584C188.994 19.1584 189.498 19.2042 190.002 19.2959C187.848 20.4646 186.29 22.5042 185.671 24.8417C186.954 23.1 188.833 21.8396 191.102 21.3813C191.354 21.3354 191.606 21.2896 191.858 21.2667L194.333 23.7646L196.808 21.2667C197.06 21.2896 197.312 21.3354 197.565 21.3813C199.833 21.8167 201.712 23.1 202.996 24.8417C202.331 22.5042 200.773 20.4646 198.619 19.2959Z" fill="#006E63"/>
<path d="M194.287 30.0667C194.906 30.0667 195.433 29.5625 195.433 28.9209C195.433 28.2792 194.929 27.775 194.287 27.775C193.669 27.775 193.142 28.2792 193.142 28.9209C193.165 29.5396 193.669 30.0667 194.287 30.0667Z" fill="#006E63"/>
<path d="M194.288 32.4729C194.792 32.4729 195.204 32.0604 195.204 31.5562C195.204 31.052 194.792 30.6395 194.288 30.6395C193.783 30.6395 193.371 31.052 193.371 31.5562C193.371 32.0604 193.783 32.4729 194.288 32.4729Z" fill="#006E63"/>
<path d="M194.287 27.2479C195.067 27.2479 195.708 26.6062 195.708 25.8041C195.708 25.002 195.067 24.3604 194.287 24.3604C193.508 24.3604 192.867 25.002 192.867 25.8041C192.867 26.6062 193.508 27.2479 194.287 27.2479Z" fill="#006E63"/>
<path d="M203.523 30.8688C198.046 30.8688 193.05 33.0459 189.383 36.5979H191.331C191.835 36.5979 192.294 36.4146 192.683 36.0709C195.64 33.5042 199.352 31.7396 203.523 31.2125C204.531 31.0979 205.517 31.0292 206.502 31.075C205.54 30.9375 204.531 30.8688 203.523 30.8688Z" fill="#006E63"/>
<path d="M185.075 30.8688C190.552 30.8688 195.548 33.0459 199.215 36.5979H197.267C196.762 36.5979 196.304 36.4146 195.915 36.0709C192.958 33.5042 189.246 31.7396 185.075 31.2125C184.067 31.0979 183.081 31.0292 182.096 31.075C183.058 30.9375 184.044 30.8688 185.075 30.8688Z" fill="#006E63"/>
<path d="M172.127 12.9708C170.454 14.6437 166.948 18.8375 167.75 23.8562C168.804 30.3875 184.067 52.4104 195.342 52.4104C200.842 52.4104 205.104 48.2625 209.458 41.7542C200.154 50.05 176.687 37.6062 172.127 12.9708Z" fill="#00A19B"/>
</g>
<defs>
<clipPath id="clip0_1_492">
<rect width="220" height="52.4792" fill="white"/>
</clipPath>
</defs>
</svg>
