<svg width="220" height="51" viewBox="0 0 220 51" fill="none" xmlns="http://www.w3.org/2000/svg">
<g clip-path="url(#clip0_1_280)">
<path d="M59.0728 0.293823H58.4088V50.1853H59.0728V0.293823Z" fill="#000062"/>
<path d="M72.5007 23.4879L71.532 24.0972C71.3031 23.8312 71.0113 23.6268 70.6831 23.5025C70.355 23.3783 70.0009 23.3381 69.6533 23.3858C69.3056 23.4335 68.9755 23.5674 68.6929 23.7754C68.4103 23.9834 68.1842 24.2589 68.0354 24.5766C67.8865 24.8944 67.8196 25.2443 67.8407 25.5946C67.8618 25.9449 67.9703 26.2843 68.1562 26.5819C68.3421 26.8795 68.5995 27.1258 68.9051 27.2984C69.2106 27.4709 69.5544 27.5643 69.9053 27.5699C70.2192 27.5654 70.5282 27.4909 70.8096 27.3518C71.091 27.2126 71.3378 27.0124 71.532 26.7657L72.5007 27.3749C72.0921 27.9115 71.5255 28.3063 70.8806 28.5038C70.2358 28.7014 69.5452 28.6917 68.9062 28.476C68.2672 28.2604 67.7119 27.8498 67.3186 27.3019C66.9253 26.7541 66.7137 26.0967 66.7137 25.4223C66.7137 24.7479 66.9253 24.0904 67.3186 23.5426C67.7119 22.9948 68.2672 22.5841 68.9062 22.3685C69.5452 22.1529 70.2358 22.1432 70.8806 22.3407C71.5255 22.5382 72.0921 22.9331 72.5007 23.4696V23.4879Z" fill="#000062"/>
<path d="M78.648 26.3392C78.681 26.8375 78.5635 27.3342 78.3107 27.7649C78.058 28.1955 77.6817 28.5403 77.2306 28.7546C76.7796 28.9688 76.2745 29.0426 75.781 28.9663C75.2875 28.89 74.8283 28.6672 74.463 28.3268C74.0976 27.9864 73.843 27.5441 73.732 27.0572C73.6211 26.5704 73.659 26.0614 73.8409 25.5963C74.0227 25.1312 74.3401 24.7315 74.7518 24.449C75.1636 24.1665 75.6507 24.0142 76.1501 24.0119C76.4684 23.9946 76.7868 24.0418 77.0865 24.1505C77.3861 24.2591 77.6607 24.4271 77.8939 24.6444C78.1271 24.8617 78.3141 25.1238 78.4437 25.415C78.5732 25.7062 78.6427 26.0205 78.648 26.3392ZM74.7427 26.3392C74.7403 26.6196 74.8213 26.8943 74.9754 27.1284C75.1295 27.3626 75.3498 27.5457 75.6082 27.6543C75.8666 27.763 76.1515 27.7924 76.4266 27.7387C76.7018 27.6851 76.9548 27.5508 77.1534 27.353C77.3521 27.1552 77.4874 26.9028 77.5423 26.6279C77.5971 26.353 77.569 26.068 77.4614 25.8091C77.3539 25.5502 77.1718 25.3292 76.9383 25.1741C76.7048 25.0189 76.4304 24.9368 76.1501 24.938C75.9644 24.933 75.7797 24.9657 75.6071 25.0343C75.4345 25.1029 75.2776 25.2058 75.146 25.3369C75.0144 25.4679 74.9108 25.6243 74.8414 25.7966C74.7721 25.9689 74.7385 26.1535 74.7427 26.3392Z" fill="#000062"/>
<path d="M84.2836 24.7369C84.7967 24.2617 85.4729 24.0021 86.1722 24.0119C86.386 23.9935 86.6012 24.0219 86.8028 24.0952C87.0044 24.1685 87.1876 24.2849 87.3396 24.4363C87.4916 24.5877 87.6087 24.7705 87.6828 24.9718C87.7569 25.1732 87.7861 25.3883 87.7685 25.6021V28.5752H86.6779V25.9189C86.6969 25.7884 86.6868 25.6553 86.6484 25.5292C86.61 25.4031 86.5442 25.287 86.4558 25.1892C86.3673 25.0914 86.2583 25.0144 86.1367 24.9636C86.015 24.9128 85.8836 24.8895 85.7519 24.8953C85.2645 24.8948 84.7924 25.0651 84.4176 25.3767C84.4641 25.5763 84.4866 25.7809 84.4846 25.9859V28.5569H83.4002V25.9189C83.4192 25.7879 83.409 25.6543 83.3703 25.5277C83.3315 25.4011 83.2652 25.2846 83.1761 25.1867C83.0869 25.0888 82.9772 25.0119 82.8547 24.9616C82.7323 24.9112 82.6002 24.8886 82.468 24.8953C82.0024 24.8932 81.5527 25.0648 81.2069 25.3767V28.5752H80.1163V24.0972H81.2069V24.7065C81.6783 24.2657 82.2979 24.0179 82.9432 24.0119C83.2123 23.9936 83.4811 24.052 83.7184 24.1803C83.9556 24.3087 84.1516 24.5017 84.2836 24.7369Z" fill="#000062"/>
<path d="M93.5381 24.7369C94.0531 24.2608 94.7316 24.0011 95.4328 24.0119C95.6463 23.9933 95.8613 24.0217 96.0627 24.095C96.2641 24.1683 96.4469 24.2849 96.5985 24.4364C96.75 24.5879 96.8665 24.7708 96.9399 24.9722C97.0132 25.1735 97.0416 25.3885 97.023 25.602V28.5752H95.9324V25.9188C95.9324 25.2426 95.5669 24.8953 95.0064 24.8953C94.5209 24.8951 94.0509 25.0655 93.6782 25.3766C93.7198 25.577 93.7402 25.7812 93.7391 25.9859V28.5569H92.6547V25.9188C92.6738 25.7878 92.6636 25.6542 92.6248 25.5276C92.5861 25.401 92.5197 25.2846 92.4306 25.1867C92.3414 25.0888 92.2317 25.0119 92.1093 24.9615C91.9868 24.9111 91.8547 24.8885 91.7225 24.8953C91.2571 24.8943 90.8078 25.0658 90.4614 25.3766V28.5752H89.3708V24.0972H90.4614V24.7064C90.9328 24.2657 91.5524 24.0178 92.1977 24.0119C92.4669 23.9936 92.7357 24.0519 92.9729 24.1803C93.2102 24.3086 93.4061 24.5016 93.5381 24.7369Z" fill="#000062"/>
<path d="M103.128 24.0972V28.5752H102.037V28.0025C101.517 28.4176 100.875 28.6508 100.209 28.6665C99.9944 28.69 99.7769 28.6662 99.5721 28.5969C99.3673 28.5277 99.18 28.4146 99.0234 28.2655C98.8668 28.1164 98.7446 27.935 98.6653 27.7338C98.586 27.5326 98.5516 27.3166 98.5644 27.1008V24.0972H99.6488V26.7596C99.6336 26.895 99.6489 27.0322 99.6935 27.161C99.7382 27.2898 99.8111 27.4069 99.9069 27.5039C100.003 27.6009 100.119 27.6752 100.247 27.7214C100.375 27.7676 100.512 27.7845 100.648 27.7709C101.163 27.7594 101.656 27.5625 102.037 27.2165V24.0972H103.128Z" fill="#000062"/>
<path d="M109.379 25.6021V28.5752H108.294V25.9189C108.31 25.7822 108.296 25.6436 108.251 25.5133C108.207 25.383 108.133 25.2644 108.037 25.1661C107.94 25.0679 107.823 24.9926 107.694 24.9457C107.564 24.8989 107.426 24.8816 107.289 24.8954C106.774 24.909 106.282 25.1105 105.906 25.462V28.5752H104.791V24.0973H105.888V24.6639C106.409 24.2531 107.051 24.0242 107.715 24.012C107.934 23.984 108.156 24.0052 108.366 24.0742C108.575 24.1431 108.767 24.258 108.926 24.4104C109.086 24.5628 109.209 24.7489 109.287 24.9551C109.365 25.1612 109.397 25.3823 109.379 25.6021Z" fill="#000062"/>
<path d="M112.193 22.964C112.193 23.1256 112.129 23.2805 112.015 23.3948C111.901 23.509 111.746 23.5732 111.584 23.5732C111.422 23.5732 111.267 23.509 111.153 23.3948C111.039 23.2805 110.975 23.1256 110.975 22.964C110.975 22.8024 111.039 22.6474 111.153 22.5332C111.267 22.4189 111.422 22.3547 111.584 22.3547C111.746 22.3547 111.901 22.4189 112.015 22.5332C112.129 22.6474 112.193 22.8024 112.193 22.964ZM112.151 28.5752H111.066V24.0972H112.151V28.5752Z" fill="#000062"/>
<path d="M118.042 24.938L117.207 25.4071C117.056 25.227 116.862 25.0879 116.642 25.0027C116.423 24.9174 116.186 24.8888 115.952 24.9195C115.719 24.9501 115.497 25.039 115.307 25.1779C115.117 25.3169 114.966 25.5015 114.866 25.7146C114.766 25.9277 114.721 26.1625 114.736 26.3973C114.751 26.6322 114.825 26.8595 114.951 27.0583C115.077 27.2572 115.251 27.4211 115.457 27.535C115.662 27.6489 115.894 27.7091 116.129 27.7101C116.34 27.7161 116.55 27.6736 116.742 27.5859C116.934 27.4983 117.104 27.3678 117.238 27.2044L118.079 27.6735C117.847 27.9751 117.549 28.2193 117.208 28.3873C116.866 28.5553 116.491 28.6425 116.111 28.6422C115.494 28.6422 114.902 28.397 114.465 27.9606C114.029 27.5241 113.783 26.9321 113.783 26.3149C113.783 25.6976 114.029 25.1057 114.465 24.6692C114.902 24.2328 115.494 23.9875 116.111 23.9875C116.484 23.9875 116.852 24.0732 117.187 24.238C117.522 24.4028 117.814 24.6423 118.042 24.938Z" fill="#000062"/>
<path d="M123.86 24.0972V28.5752H122.776V28.0573C122.589 28.2545 122.363 28.4105 122.112 28.5154C121.861 28.6202 121.592 28.6717 121.32 28.6666C120.732 28.624 120.181 28.3603 119.78 27.9285C119.378 27.4967 119.155 26.9289 119.155 26.3392C119.155 25.7495 119.378 25.1817 119.78 24.7499C120.181 24.3182 120.732 24.0545 121.32 24.0119C121.592 24.0063 121.862 24.0576 122.112 24.1626C122.363 24.2675 122.589 24.4237 122.776 24.6211V24.1033L123.86 24.0972ZM122.776 27.1434V25.5472C122.637 25.3548 122.454 25.1988 122.242 25.0927C122.029 24.9866 121.795 24.9335 121.557 24.9379C121.203 24.9614 120.87 25.1189 120.627 25.3785C120.384 25.6382 120.249 25.9805 120.249 26.3362C120.249 26.6918 120.384 27.0342 120.627 27.2938C120.87 27.5535 121.203 27.711 121.557 27.7344C121.797 27.7361 122.033 27.6793 122.245 27.5688C122.458 27.4584 122.64 27.2977 122.776 27.1008V27.1434Z" fill="#000062"/>
<path d="M128.509 28.3498C128.15 28.5532 127.746 28.6622 127.333 28.6666C127.126 28.6787 126.919 28.6462 126.726 28.5712C126.533 28.4962 126.358 28.3805 126.214 28.2319C126.069 28.0834 125.958 27.9055 125.889 27.7103C125.819 27.5151 125.792 27.3073 125.81 27.1008V24.9684H125.103V24.0972H125.81V22.8361H126.894V24.0546H128.168V24.9684H126.894V26.9363C126.885 27.0423 126.898 27.1492 126.933 27.2496C126.968 27.35 127.025 27.4415 127.099 27.5179C127.173 27.5944 127.263 27.6538 127.362 27.6922C127.462 27.7307 127.568 27.7471 127.674 27.7405C127.913 27.7429 128.149 27.6886 128.363 27.5821L128.509 28.3498Z" fill="#000062"/>
<path d="M131.056 22.964C131.067 23.0863 131.041 23.209 130.981 23.3161C130.921 23.4233 130.83 23.5098 130.72 23.5644C130.61 23.6191 130.486 23.6392 130.365 23.6223C130.243 23.6053 130.13 23.5521 130.039 23.4695C129.948 23.3869 129.884 23.2788 129.856 23.1594C129.828 23.0399 129.836 22.9147 129.88 22.8002C129.924 22.6856 130.002 22.5871 130.103 22.5174C130.204 22.4477 130.324 22.4101 130.446 22.4096C130.523 22.4047 130.6 22.4152 130.673 22.4407C130.745 22.4661 130.812 22.5058 130.869 22.5576C130.926 22.6093 130.971 22.672 131.003 22.7418C131.036 22.8116 131.053 22.8872 131.056 22.964ZM130.989 28.5752H129.904V24.0973H130.989V28.5752Z" fill="#000062"/>
<path d="M137.538 26.3392C137.571 26.8375 137.454 27.3342 137.201 27.7648C136.948 28.1955 136.572 28.5403 136.121 28.7545C135.67 28.9688 135.165 29.0425 134.671 28.9663C134.178 28.89 133.718 28.6672 133.353 28.3268C132.988 27.9864 132.733 27.5441 132.622 27.0572C132.511 26.5703 132.549 26.0614 132.731 25.5963C132.913 25.1312 133.23 24.7315 133.642 24.449C134.054 24.1665 134.541 24.0142 135.04 24.0119C135.359 23.9938 135.677 24.0403 135.977 24.1486C136.277 24.257 136.552 24.425 136.786 24.6424C137.019 24.8599 137.206 25.1223 137.335 25.4139C137.465 25.7055 137.534 26.0203 137.538 26.3392ZM133.633 26.3392C133.629 26.6212 133.71 26.8979 133.864 27.134C134.018 27.3701 134.239 27.5549 134.499 27.6648C134.759 27.7747 135.046 27.8047 135.322 27.751C135.599 27.6973 135.854 27.5624 136.054 27.3634C136.254 27.1644 136.39 26.9103 136.445 26.6337C136.5 26.357 136.471 26.0703 136.362 25.81C136.253 25.5498 136.069 25.3279 135.834 25.1725C135.599 25.0172 135.322 24.9355 135.04 24.9379C134.854 24.9329 134.67 24.9657 134.497 25.0343C134.325 25.1029 134.168 25.2058 134.036 25.3368C133.904 25.4679 133.801 25.6243 133.731 25.7966C133.662 25.9689 133.629 26.1535 133.633 26.3392Z" fill="#000062"/>
<path d="M143.582 25.6021V28.5753H142.498V25.9189C142.514 25.7822 142.499 25.6436 142.455 25.5133C142.41 25.383 142.337 25.2644 142.24 25.1662C142.144 25.0679 142.027 24.9926 141.897 24.9457C141.768 24.8989 141.629 24.8817 141.492 24.8954C140.978 24.909 140.486 25.1106 140.109 25.462V28.5753H139.013V24.0973H140.128V24.6639C140.65 24.2531 141.291 24.0242 141.955 24.012C142.171 23.9899 142.389 24.0155 142.594 24.087C142.799 24.1586 142.986 24.2743 143.141 24.4261C143.296 24.5778 143.416 24.7618 143.493 24.965C143.569 25.1683 143.599 25.3858 143.582 25.6021Z" fill="#000062"/>
<path d="M148.657 24.4994L148.291 25.2061C147.845 24.9504 147.343 24.8062 146.829 24.7857C146.348 24.7857 146.098 24.9502 146.098 25.2792C146.098 25.6082 146.25 25.6386 146.866 25.8092L147.365 25.9433C148.425 26.2296 148.815 26.5891 148.815 27.2471C148.815 28.1427 148.127 28.6666 146.945 28.6666C146.206 28.6704 145.482 28.4587 144.861 28.0574L145.239 27.3689C145.762 27.6949 146.365 27.8719 146.981 27.8807C147.53 27.8807 147.798 27.6979 147.798 27.3263C147.798 27.0582 147.664 26.9546 147.097 26.7962L146.537 26.6439C145.44 26.3393 145.056 26.0347 145.056 25.3706C145.056 24.5115 145.739 24.0059 146.884 24.0059C147.508 24.0137 148.119 24.1838 148.657 24.4994Z" fill="#000062"/>
<path d="M157.85 27.3323L158.496 28.0086L157.729 28.6666L157.162 28.0573C156.595 28.4748 155.904 28.6894 155.2 28.6666C153.823 28.6666 152.946 28.0573 152.946 26.9607C152.946 26.2113 153.379 25.6934 154.53 25.1329L154.433 25.0293C154.162 24.8083 153.971 24.5042 153.89 24.1639C153.81 23.8237 153.844 23.4664 153.986 23.1473C154.129 22.8281 154.373 22.565 154.681 22.3986C154.988 22.2322 155.342 22.1718 155.688 22.2268C155.893 22.2067 156.101 22.2289 156.298 22.2919C156.494 22.3549 156.676 22.4574 156.832 22.5932C156.988 22.7289 157.114 22.8951 157.203 23.0814C157.292 23.2678 157.343 23.4704 157.351 23.6768C157.351 24.4384 156.93 24.8953 155.974 25.3462L157.192 26.6499C157.458 26.2958 157.678 25.9088 157.844 25.4985L158.642 25.8579C158.446 26.3827 158.179 26.8786 157.85 27.3323ZM156.528 27.3323L155.115 25.7665C154.317 26.1747 154.067 26.4611 154.067 26.8632C154.067 27.4298 154.53 27.771 155.237 27.771C155.703 27.7662 156.156 27.6125 156.528 27.3323ZM154.835 23.7377C154.863 24.0524 155.004 24.3463 155.231 24.5663L155.383 24.7247C156.248 24.3104 156.431 24.1155 156.431 23.689C156.43 23.5936 156.409 23.4994 156.369 23.4127C156.329 23.326 156.271 23.2488 156.199 23.1861C156.127 23.1233 156.043 23.0766 155.951 23.0488C155.86 23.021 155.764 23.0129 155.669 23.0249C155.567 23.0149 155.464 23.0256 155.367 23.0563C155.269 23.087 155.178 23.1372 155.1 23.2037C155.022 23.2703 154.959 23.3519 154.913 23.4436C154.867 23.5354 154.841 23.6354 154.835 23.7377Z" fill="#000062"/>
<path d="M164.29 28.5752H163.127V22.306H164.29V28.5752Z" fill="#000062"/>
<path d="M170.718 25.602V28.5752H169.633V25.9189C169.65 25.7821 169.635 25.6435 169.59 25.5132C169.546 25.3829 169.473 25.2643 169.376 25.1661C169.28 25.0678 169.162 24.9925 169.033 24.9457C168.903 24.8988 168.765 24.8816 168.628 24.8953C168.112 24.9097 167.618 25.111 167.239 25.4619V28.5752H166.148V24.0972H167.239V24.6638C167.762 24.2554 168.403 24.0268 169.067 24.0119C169.285 23.9859 169.505 24.0086 169.713 24.0784C169.921 24.1483 170.111 24.2634 170.269 24.4156C170.427 24.5678 170.549 24.7532 170.627 24.9583C170.705 25.1635 170.736 25.3834 170.718 25.602Z" fill="#000062"/>
<path d="M173.636 23.7865V24.0973H174.946V24.9685H173.636V28.5752H172.546V24.9685H171.881V24.0973H172.546V23.7683C172.53 23.5571 172.561 23.3451 172.637 23.1473C172.712 22.9495 172.83 22.7707 172.983 22.6236C173.135 22.4765 173.318 22.3648 173.518 22.2962C173.718 22.2276 173.931 22.204 174.142 22.2269C174.483 22.2249 174.822 22.2763 175.147 22.3792L174.983 23.1285C174.786 23.0618 174.58 23.0288 174.373 23.0311C174.273 23.0234 174.172 23.0379 174.078 23.0734C173.984 23.109 173.899 23.1647 173.828 23.2367C173.758 23.3087 173.704 23.3953 173.671 23.4903C173.638 23.5853 173.626 23.6864 173.636 23.7865Z" fill="#000062"/>
<path d="M180.947 26.3392C180.98 26.8378 180.862 27.3347 180.609 27.7655C180.356 28.1963 179.98 28.5412 179.528 28.7552C179.077 28.9693 178.572 29.0427 178.078 28.966C177.584 28.8892 177.125 28.6658 176.76 28.3248C176.395 27.9838 176.141 27.5409 176.03 27.0536C175.92 26.5663 175.959 26.0571 176.142 25.5921C176.324 25.1271 176.643 24.7278 177.055 24.446C177.468 24.1642 177.956 24.013 178.455 24.0119C178.773 23.9946 179.091 24.0418 179.391 24.1505C179.69 24.2593 179.964 24.4274 180.197 24.6447C180.43 24.8621 180.616 25.1242 180.745 25.4154C180.874 25.7066 180.943 26.0208 180.947 26.3392ZM177.048 26.3392C177.045 26.6196 177.126 26.8943 177.281 27.1284C177.435 27.3626 177.655 27.5457 177.913 27.6543C178.172 27.763 178.457 27.7924 178.732 27.7387C179.007 27.6851 179.26 27.5508 179.459 27.353C179.657 27.1552 179.793 26.9028 179.847 26.6279C179.902 26.353 179.874 26.068 179.767 25.8091C179.659 25.5502 179.477 25.3292 179.243 25.1741C179.01 25.0189 178.736 24.9368 178.455 24.938C178.269 24.9313 178.083 24.9628 177.909 25.0306C177.734 25.0984 177.576 25.2011 177.443 25.3323C177.31 25.4635 177.206 25.6205 177.135 25.7937C177.065 25.9669 177.031 26.1525 177.036 26.3392H177.048Z" fill="#000062"/>
<path d="M185.334 24.9563C184.987 24.9575 184.645 25.0326 184.33 25.1765C184.015 25.3204 183.734 25.5299 183.506 25.791V28.5752H182.415V24.0973H183.506V24.938C183.725 24.6602 184.002 24.4335 184.318 24.2736C184.633 24.1136 184.98 24.0244 185.334 24.012V24.9563Z" fill="#000062"/>
<path d="M190.695 24.7369C191.208 24.2612 191.884 24.0015 192.584 24.0119C192.798 23.9935 193.013 24.0219 193.214 24.0952C193.416 24.1685 193.599 24.2849 193.751 24.4363C193.903 24.5877 194.02 24.7705 194.094 24.9718C194.168 25.1732 194.198 25.3883 194.18 25.6021V28.5752H193.083V25.9189C193.083 25.2426 192.718 24.8953 192.163 24.8953C191.676 24.8948 191.204 25.0651 190.829 25.3767C190.871 25.577 190.891 25.7812 190.89 25.9859V28.5569H189.812V25.9189C189.831 25.7868 189.821 25.6521 189.781 25.5245C189.742 25.397 189.674 25.2799 189.584 25.1817C189.493 25.0836 189.382 25.007 189.258 24.9574C189.134 24.9079 189.001 24.8867 188.867 24.8953C188.402 24.8932 187.952 25.0648 187.606 25.3767V28.5752H186.51V24.0972H187.606V24.7065C188.078 24.2657 188.697 24.0179 189.343 24.0119C189.614 23.992 189.885 24.0495 190.124 24.1779C190.364 24.3063 190.562 24.5002 190.695 24.7369Z" fill="#000062"/>
<path d="M200.285 24.0972V28.5752H199.225V28.0574C199.037 28.2553 198.81 28.4117 198.558 28.5167C198.306 28.6216 198.035 28.6727 197.762 28.6666C197.174 28.624 196.624 28.3603 196.222 27.9286C195.821 27.4968 195.597 26.929 195.597 26.3393C195.597 25.7496 195.821 25.1818 196.222 24.75C196.624 24.3182 197.174 24.0545 197.762 24.012C198.035 24.0059 198.306 24.057 198.558 24.1619C198.81 24.2668 199.037 24.4233 199.225 24.6212V24.1033L200.285 24.0972ZM199.225 27.1009V25.5473C199.085 25.3552 198.902 25.1995 198.69 25.0935C198.478 24.9874 198.243 24.9341 198.006 24.938C197.674 24.9874 197.37 25.1545 197.151 25.409C196.932 25.6634 196.811 25.9881 196.811 26.3241C196.811 26.66 196.932 26.9848 197.151 27.2392C197.37 27.4936 197.674 27.6607 198.006 27.7101C198.243 27.714 198.478 27.6607 198.69 27.5546C198.902 27.4486 199.085 27.2929 199.225 27.1009Z" fill="#000062"/>
<path d="M204.927 28.3498C204.57 28.5522 204.168 28.6612 203.757 28.6666C203.551 28.6786 203.345 28.6462 203.152 28.5716C202.959 28.4969 202.785 28.3818 202.64 28.2339C202.496 28.0861 202.385 27.9089 202.315 27.7145C202.245 27.5201 202.217 27.3129 202.234 27.1069V24.9684H201.528V24.0972H202.234V22.8361H203.319V24.0546H204.586V24.9684H203.319V26.9363C203.309 27.0423 203.322 27.1492 203.357 27.2496C203.393 27.35 203.449 27.4415 203.524 27.5179C203.598 27.5944 203.687 27.6538 203.787 27.6922C203.886 27.7307 203.992 27.7471 204.099 27.7405C204.337 27.7422 204.573 27.6879 204.787 27.5821L204.927 28.3498Z" fill="#000062"/>
<path d="M207.48 22.9641C207.478 23.0409 207.46 23.1165 207.428 23.1863C207.396 23.2561 207.35 23.3188 207.293 23.3705C207.236 23.4223 207.169 23.462 207.097 23.4874C207.024 23.5129 206.947 23.5234 206.871 23.5185C206.764 23.5079 206.663 23.4666 206.579 23.3996C206.495 23.3326 206.433 23.2427 206.399 23.141C206.365 23.0392 206.362 22.9298 206.389 22.8262C206.416 22.7225 206.473 22.6289 206.552 22.5567C206.632 22.4846 206.73 22.437 206.836 22.4196C206.942 22.4023 207.05 22.416 207.148 22.4591C207.247 22.5022 207.33 22.5729 207.389 22.6625C207.448 22.7521 207.479 22.8569 207.48 22.9641ZM207.437 28.5752H206.353V24.0973H207.437V28.5752Z" fill="#000062"/>
<path d="M213.962 26.3392C213.995 26.8375 213.878 27.3342 213.625 27.7649C213.372 28.1955 212.996 28.5403 212.545 28.7546C212.094 28.9688 211.589 29.0426 211.095 28.9663C210.602 28.89 210.143 28.6672 209.777 28.3268C209.412 27.9864 209.157 27.5441 209.046 27.0572C208.935 26.5704 208.973 26.0614 209.155 25.5963C209.337 25.1312 209.654 24.7315 210.066 24.449C210.478 24.1665 210.965 24.0142 211.464 24.0119C211.783 23.9946 212.101 24.0418 212.401 24.1505C212.7 24.2591 212.975 24.4271 213.208 24.6444C213.441 24.8617 213.628 25.1238 213.758 25.415C213.888 25.7062 213.957 26.0205 213.962 26.3392ZM210.057 26.3392C210.055 26.6196 210.136 26.8943 210.29 27.1284C210.444 27.3626 210.664 27.5457 210.922 27.6543C211.181 27.763 211.466 27.7924 211.741 27.7387C212.016 27.6851 212.269 27.5508 212.468 27.353C212.666 27.1552 212.802 26.9028 212.857 26.6279C212.911 26.353 212.883 26.068 212.776 25.8091C212.668 25.5502 212.486 25.3292 212.253 25.1741C212.019 25.0189 211.745 24.9368 211.464 24.938C211.279 24.933 211.094 24.9657 210.921 25.0343C210.749 25.1029 210.592 25.2058 210.46 25.3369C210.329 25.4679 210.225 25.6243 210.156 25.7966C210.086 25.9689 210.053 26.1535 210.057 26.3392Z" fill="#000062"/>
<path d="M220 25.602V28.5752H218.922V25.9188C218.938 25.7821 218.923 25.6435 218.879 25.5132C218.834 25.3829 218.761 25.2643 218.664 25.1661C218.568 25.0678 218.451 24.9925 218.321 24.9456C218.192 24.8988 218.053 24.8816 217.916 24.8953C217.4 24.9097 216.906 25.111 216.527 25.4619V28.5752H215.437V24.0972H216.527V24.6638C217.05 24.2554 217.691 24.0268 218.355 24.0119C218.573 23.9857 218.793 24.0084 219.001 24.0782C219.209 24.1481 219.398 24.2634 219.556 24.4157C219.713 24.568 219.835 24.7535 219.912 24.9587C219.989 25.1639 220.019 25.3837 220 25.602Z" fill="#000062"/>
<path d="M71.7452 35.6303H69.7408V40.8759H68.5771V35.6303H66.5727V34.6311H71.7452V35.6303Z" fill="#000062"/>
<path d="M76.9178 38.9994H73.3049C73.3374 39.3215 73.493 39.6187 73.7394 39.8287C73.9858 40.0387 74.3038 40.1454 74.627 40.1265C74.8718 40.1417 75.1172 40.1075 75.3485 40.0258C75.5798 39.9442 75.7924 39.8168 75.9734 39.6513L76.5827 40.2179C76.0434 40.715 75.3359 40.9893 74.6026 40.9856C74.2923 40.997 73.9828 40.9458 73.6928 40.8349C73.4027 40.724 73.138 40.5557 72.9144 40.3402C72.6909 40.1246 72.5131 39.8662 72.3918 39.5803C72.2705 39.2945 72.208 38.9871 72.2083 38.6765C72.204 38.3674 72.2624 38.0606 72.3798 37.7747C72.4973 37.4887 72.6714 37.2295 72.8917 37.0126C73.112 36.7958 73.3739 36.6257 73.6617 36.5127C73.9494 36.3998 74.257 36.3462 74.5661 36.3553C74.8757 36.3426 75.1846 36.3938 75.4736 36.5056C75.7626 36.6173 76.0256 36.7874 76.2461 37.005C76.4667 37.2227 76.6401 37.4834 76.7557 37.771C76.8712 38.0585 76.9264 38.3668 76.9178 38.6765V38.9994ZM75.8638 38.3232C75.8552 38.1625 75.8149 38.0052 75.7453 37.8602C75.6756 37.7152 75.5779 37.5854 75.4578 37.4783C75.3378 37.3713 75.1977 37.2891 75.0457 37.2364C74.8936 37.1838 74.7327 37.1618 74.5721 37.1717C74.2519 37.1584 73.9394 37.2718 73.7022 37.4873C73.465 37.7028 73.3223 38.0031 73.3049 38.3232H75.8638Z" fill="#000062"/>
<path d="M82.5046 37.2631L81.676 37.7322C81.4894 37.5154 81.2409 37.3608 80.9639 37.2893C80.6869 37.2178 80.3946 37.2328 80.1264 37.3323C79.8581 37.4318 79.6268 37.6111 79.4634 37.8459C79.3 38.0808 79.2124 38.36 79.2124 38.6461C79.2124 38.9322 79.3 39.2115 79.4634 39.4463C79.6268 39.6812 79.8581 39.8604 80.1264 39.9599C80.3946 40.0594 80.6869 40.0744 80.9639 40.0029C81.2409 39.9314 81.4894 39.7769 81.676 39.56L82.5168 40.0291C82.2844 40.3296 81.9861 40.5726 81.6449 40.7395C81.3037 40.9064 80.9287 40.9927 80.5489 40.9917C79.9316 40.9917 79.3397 40.7465 78.9032 40.3101C78.4667 39.8736 78.2215 39.2816 78.2215 38.6644C78.2215 38.0471 78.4667 37.4552 78.9032 37.0187C79.3397 36.5823 79.9316 36.3371 80.5489 36.3371C80.9242 36.3304 81.2959 36.4105 81.6351 36.5711C81.9744 36.7318 82.2719 36.9686 82.5046 37.2631Z" fill="#000062"/>
<path d="M88.5362 37.9271V40.9003H87.4578V38.2379C87.473 38.1016 87.4575 37.9637 87.4126 37.8342C87.3676 37.7046 87.2943 37.5868 87.1979 37.4893C87.1015 37.3918 86.9846 37.317 86.8556 37.2705C86.7267 37.224 86.5889 37.2069 86.4525 37.2204C85.9374 37.2353 85.4446 37.4341 85.0634 37.7809V40.9003H83.9729V34.6311H85.0634V36.9889C85.5863 36.5791 86.2271 36.3484 86.8912 36.3309C87.1091 36.3057 87.3298 36.3293 87.5375 36.3999C87.7452 36.4705 87.9346 36.5864 88.092 36.7391C88.2494 36.8919 88.3709 37.0777 88.4477 37.2832C88.5245 37.4886 88.5548 37.7086 88.5362 37.9271Z" fill="#000062"/>
<path d="M94.7139 37.9271V40.9003H93.6294V38.2379C93.6464 38.0997 93.6315 37.9594 93.5859 37.8279C93.5404 37.6963 93.4654 37.5769 93.3666 37.4787C93.2679 37.3806 93.148 37.3063 93.0162 37.2615C92.8843 37.2167 92.744 37.2027 92.6059 37.2204C92.0906 37.2342 91.5974 37.4332 91.2168 37.7809V40.9003H90.1689V36.4223H91.2595V36.9889C91.7823 36.5791 92.4231 36.3484 93.0872 36.3309C93.3035 36.3098 93.5217 36.3363 93.7266 36.4086C93.9315 36.4809 94.118 36.5972 94.2731 36.7494C94.4282 36.9015 94.548 37.0859 94.6242 37.2894C94.7003 37.4928 94.731 37.7105 94.7139 37.9271Z" fill="#000062"/>
<path d="M101.135 38.6765C101.168 39.1748 101.051 39.6714 100.798 40.1021C100.545 40.5328 100.169 40.8776 99.718 41.0918C99.267 41.3061 98.7619 41.3798 98.2685 41.3036C97.775 41.2273 97.3158 41.0045 96.9504 40.6641C96.585 40.3237 96.3304 39.8814 96.2195 39.3945C96.1085 38.9076 96.1464 38.3986 96.3283 37.9336C96.5101 37.4685 96.8275 37.0688 97.2393 36.7863C97.651 36.5037 98.1381 36.3515 98.6375 36.3492C98.956 36.331 99.2748 36.3776 99.5748 36.4859C99.8748 36.5943 100.15 36.7622 100.383 36.9797C100.617 37.1971 100.804 37.4596 100.933 37.7512C101.062 38.0428 101.131 38.3575 101.135 38.6765ZM97.2362 38.6765C97.2326 38.9573 97.3127 39.2328 97.4664 39.4679C97.62 39.703 97.8402 39.887 98.0988 39.9965C98.3575 40.1059 98.6429 40.1358 98.9186 40.0823C99.1943 40.0289 99.4478 39.8945 99.6469 39.6964C99.8459 39.4982 99.9814 39.2452 100.036 38.9698C100.091 38.6943 100.062 38.4088 99.9537 38.1497C99.8454 37.8905 99.6624 37.6695 99.4279 37.5149C99.1935 37.3602 98.9183 37.2789 98.6375 37.2813C98.4504 37.2729 98.2635 37.303 98.0884 37.3697C97.9134 37.4364 97.7538 37.5382 97.6196 37.669C97.4855 37.7997 97.3795 37.9566 97.3083 38.1299C97.2372 38.3031 97.2023 38.4892 97.2058 38.6765H97.2362Z" fill="#000062"/>
<path d="M103.676 40.9003H102.585V34.6311H103.676V40.9003Z" fill="#000062"/>
<path d="M110.14 38.6765C110.173 39.1748 110.056 39.6714 109.803 40.1021C109.55 40.5328 109.174 40.8776 108.723 41.0918C108.272 41.3061 107.767 41.3798 107.273 41.3036C106.78 41.2273 106.32 41.0045 105.955 40.6641C105.59 40.3237 105.335 39.8814 105.224 39.3945C105.113 38.9076 105.151 38.3986 105.333 37.9336C105.515 37.4685 105.832 37.0688 106.244 36.7863C106.656 36.5037 107.143 36.3515 107.642 36.3492C107.961 36.331 108.28 36.3776 108.58 36.4859C108.88 36.5943 109.155 36.7622 109.388 36.9797C109.621 37.1971 109.808 37.4596 109.938 37.7512C110.067 38.0428 110.136 38.3575 110.14 38.6765ZM106.235 38.6765C106.23 38.9588 106.309 39.236 106.463 39.4729C106.617 39.7098 106.837 39.8956 107.097 40.0064C107.357 40.1172 107.643 40.1481 107.921 40.0951C108.198 40.0421 108.453 39.9077 108.654 39.7089C108.854 39.5102 108.991 39.2562 109.046 38.9793C109.102 38.7025 109.073 38.4155 108.965 38.1549C108.856 37.8943 108.672 37.672 108.437 37.5164C108.201 37.3608 107.924 37.2789 107.642 37.2813C107.457 37.2763 107.273 37.3089 107.101 37.3771C106.928 37.4453 106.772 37.5477 106.64 37.6781C106.509 37.8085 106.405 37.9642 106.335 38.1358C106.266 38.3074 106.231 38.4913 106.235 38.6765Z" fill="#000062"/>
<path d="M116.099 36.4224V40.5592C116.099 42.1006 115.081 42.7525 113.783 42.7525C112.99 42.7605 112.21 42.5497 111.529 42.1432L111.876 41.3816C112.402 41.7103 113.011 41.8815 113.631 41.8751C113.816 41.9024 114.004 41.8869 114.181 41.83C114.359 41.773 114.521 41.6761 114.655 41.5466C114.789 41.4171 114.892 41.2585 114.955 41.0831C115.019 40.9077 115.041 40.7201 115.02 40.5348V40.3398C114.832 40.5385 114.604 40.6954 114.351 40.8004C114.098 40.9053 113.826 40.956 113.552 40.9491C112.958 40.9186 112.398 40.6611 111.988 40.2297C111.578 39.7983 111.35 39.2259 111.35 38.6309C111.35 38.0358 111.578 37.4635 111.988 37.0321C112.398 36.6007 112.958 36.3432 113.552 36.3127C113.826 36.3062 114.098 36.357 114.351 36.4619C114.603 36.5669 114.832 36.7236 115.02 36.9219V36.4224H116.099ZM115.02 39.4686V37.8663C114.881 37.6738 114.698 37.5179 114.486 37.4118C114.274 37.3057 114.039 37.2526 113.802 37.257C113.454 37.2895 113.131 37.4506 112.896 37.7086C112.661 37.9667 112.531 38.3032 112.531 38.6522C112.531 39.0013 112.661 39.3377 112.896 39.5958C113.131 39.8538 113.454 40.0149 113.802 40.0474C114.039 40.0508 114.273 39.9973 114.485 39.8912C114.697 39.7852 114.881 39.6298 115.02 39.4381V39.4686Z" fill="#000062"/>
<path d="M120.211 41.339C119.827 42.2955 119.261 42.7342 118.438 42.7342C118.02 42.7281 117.607 42.6455 117.22 42.4905L117.585 41.7228C117.817 41.8193 118.065 41.8729 118.316 41.8812C118.737 41.8812 119.005 41.6741 119.279 41.1684L119.346 41.0222L117.36 36.4041H118.505L119.833 39.7062L121.052 36.4041H122.185L120.211 41.339Z" fill="#000062"/>
<path d="M131.811 35.8131L130.842 36.4223C130.614 36.1564 130.322 35.9519 129.994 35.8277C129.665 35.7034 129.311 35.6633 128.964 35.711C128.616 35.7587 128.286 35.8926 128.003 36.1006C127.721 36.3086 127.495 36.584 127.346 36.9018C127.197 37.2196 127.13 37.5695 127.151 37.9198C127.172 38.27 127.281 38.6095 127.467 38.907C127.653 39.2046 127.91 39.451 128.215 39.6235C128.521 39.7961 128.865 39.8895 129.216 39.8951C129.53 39.8919 129.839 39.818 130.121 39.6787C130.403 39.5395 130.649 39.3386 130.842 39.0909L131.811 39.7001C131.402 40.2386 130.835 40.6351 130.189 40.8338C129.542 41.0326 128.85 41.0234 128.209 40.8077C127.568 40.5921 127.012 40.1807 126.617 39.6316C126.223 39.0826 126.01 38.4235 126.01 37.7475C126.01 37.0714 126.223 36.4123 126.617 35.8633C127.012 35.3142 127.568 34.9029 128.209 34.6872C128.85 34.4715 129.542 34.4623 130.189 34.6611C130.835 34.8598 131.402 35.2563 131.811 35.7948V35.8131Z" fill="#000062"/>
<path d="M137.989 38.6765C138.022 39.1748 137.904 39.6714 137.652 40.1021C137.399 40.5328 137.023 40.8776 136.572 41.0918C136.12 41.3061 135.615 41.3798 135.122 41.3036C134.628 41.2273 134.169 41.0045 133.804 40.6641C133.439 40.3237 133.184 39.8814 133.073 39.3945C132.962 38.9076 133 38.3986 133.182 37.9336C133.364 37.4685 133.681 37.0688 134.093 36.7863C134.504 36.5037 134.992 36.3515 135.491 36.3492C135.809 36.331 136.128 36.3776 136.428 36.4859C136.728 36.5943 137.003 36.7622 137.237 36.9797C137.47 37.1971 137.657 37.4596 137.786 37.7512C137.916 38.0428 137.984 38.3575 137.989 38.6765ZM134.084 38.6765C134.079 38.9588 134.158 39.236 134.312 39.4729C134.465 39.7098 134.686 39.8956 134.946 40.0064C135.205 40.1172 135.492 40.1481 135.769 40.0951C136.047 40.0421 136.302 39.9077 136.502 39.7089C136.703 39.5102 136.84 39.2562 136.895 38.9793C136.95 38.7025 136.922 38.4155 136.813 38.1549C136.705 37.8943 136.521 37.672 136.285 37.5164C136.05 37.3608 135.773 37.2789 135.491 37.2813C135.306 37.2763 135.122 37.3089 134.949 37.3771C134.777 37.4453 134.621 37.5477 134.489 37.6781C134.358 37.8085 134.254 37.9642 134.184 38.1358C134.114 38.3074 134.08 38.4913 134.084 38.6765Z" fill="#000062"/>
<path d="M143.624 37.0559C144.141 36.5825 144.819 36.3233 145.519 36.3309C145.733 36.3133 145.948 36.3425 146.149 36.4166C146.351 36.4906 146.534 36.6078 146.685 36.7598C146.836 36.9118 146.953 37.095 147.026 37.2966C147.099 37.4982 147.128 37.7134 147.109 37.9272V40.9003H146.019V38.2379C146.038 38.1077 146.028 37.9748 145.989 37.849C145.951 37.7231 145.885 37.6073 145.797 37.51C145.708 37.4127 145.599 37.3362 145.477 37.2861C145.355 37.2361 145.224 37.2136 145.093 37.2204C144.607 37.2203 144.137 37.3906 143.765 37.7017C143.806 37.9021 143.827 38.1063 143.826 38.311V40.882H142.741V38.2379C142.759 38.1073 142.748 37.9744 142.709 37.8485C142.67 37.7227 142.603 37.6071 142.514 37.5099C142.425 37.4127 142.316 37.3364 142.194 37.2863C142.072 37.2363 141.941 37.2138 141.809 37.2204C141.343 37.2194 140.894 37.3909 140.548 37.7017V40.9003H139.457V36.4223H140.548V37.0316C141.019 36.5891 141.638 36.3391 142.284 36.3309C142.553 36.314 142.821 36.3731 143.058 36.5013C143.295 36.6294 143.491 36.8216 143.624 37.0559Z" fill="#000062"/>
<path d="M152.885 37.0559C153.399 36.5823 154.075 36.323 154.774 36.3309C154.988 36.3133 155.203 36.3425 155.404 36.4166C155.605 36.4906 155.788 36.6078 155.94 36.7598C156.091 36.9118 156.207 37.095 156.281 37.2966C156.354 37.4982 156.382 37.7134 156.364 37.9272V40.9003H155.273V38.2379C155.292 38.1082 155.282 37.9759 155.244 37.8505C155.206 37.7251 155.141 37.6097 155.053 37.5125C154.965 37.4152 154.857 37.3387 154.736 37.2882C154.615 37.2377 154.484 37.2146 154.353 37.2204C153.866 37.2188 153.393 37.3893 153.019 37.7017C153.061 37.9021 153.081 38.1063 153.08 38.311V40.882H151.996V38.2379C152.013 38.1099 152.003 37.9797 151.965 37.8561C151.928 37.7326 151.864 37.6185 151.779 37.5219C151.693 37.4253 151.587 37.3483 151.469 37.2962C151.351 37.2442 151.223 37.2183 151.094 37.2204C150.629 37.22 150.179 37.3914 149.833 37.7017V40.9003H148.742V36.4223H149.833V37.0316C150.304 36.5891 150.923 36.3391 151.569 36.3309C151.834 36.32 152.096 36.3819 152.328 36.5097C152.56 36.6375 152.753 36.8264 152.885 37.0559Z" fill="#000062"/>
<path d="M159.185 35.2831C159.154 35.4177 159.079 35.5379 158.971 35.624C158.863 35.7101 158.729 35.7569 158.591 35.7569C158.453 35.7569 158.319 35.7101 158.211 35.624C158.103 35.5379 158.027 35.4177 157.997 35.2831C158.027 35.1485 158.103 35.0283 158.211 34.9422C158.319 34.8561 158.453 34.8092 158.591 34.8092C158.729 34.8092 158.863 34.8561 158.971 34.9422C159.079 35.0283 159.154 35.1485 159.185 35.2831ZM159.142 40.9004H158.058V36.4224H159.142V40.9004Z" fill="#000062"/>
<path d="M164.369 36.8488L164.004 37.5555C163.547 37.2941 163.032 37.1497 162.505 37.1352C162.024 37.1352 161.774 37.2997 161.774 37.6287C161.774 37.9577 161.926 37.9881 162.542 38.1587L163.041 38.2927C164.101 38.5791 164.491 38.9325 164.491 39.5965C164.491 40.4921 163.803 41.01 162.621 41.01C161.882 41.0141 161.158 40.8024 160.537 40.4007L160.915 39.7123C161.438 40.0383 162.041 40.2152 162.657 40.2241C163.206 40.2241 163.474 40.0413 163.474 39.6636C163.474 39.3955 163.34 39.298 162.773 39.1396L162.213 38.9873C161.116 38.6827 160.732 38.378 160.732 37.714C160.732 36.8549 161.415 36.3431 162.56 36.3431C163.197 36.3486 163.822 36.5231 164.369 36.8488Z" fill="#000062"/>
<path d="M169.432 36.8488L169.067 37.5555C168.612 37.2942 168.099 37.1497 167.574 37.1352C167.087 37.1352 166.837 37.2997 166.837 37.6287C166.837 37.9577 166.989 37.9881 167.611 38.1587L168.11 38.2927C169.164 38.5791 169.56 38.9325 169.56 39.5965C169.56 40.4921 168.872 41.01 167.69 41.01C166.951 41.0141 166.227 40.8024 165.606 40.4007L165.978 39.7123C166.504 40.0374 167.108 40.2142 167.726 40.2241C168.269 40.2241 168.543 40.0413 168.543 39.6636C168.543 39.3955 168.403 39.298 167.842 39.1396L167.276 38.9873C166.185 38.6827 165.801 38.378 165.801 37.714C165.801 36.8549 166.484 36.3431 167.598 36.3431C168.244 36.3443 168.877 36.5189 169.432 36.8488Z" fill="#000062"/>
<path d="M172.229 35.2831C172.229 35.4447 172.165 35.5996 172.05 35.7139C171.936 35.8281 171.781 35.8923 171.619 35.8923C171.458 35.8923 171.303 35.8281 171.189 35.7139C171.074 35.5996 171.01 35.4447 171.01 35.2831C171.01 35.1215 171.074 34.9665 171.189 34.8523C171.303 34.738 171.458 34.6738 171.619 34.6738C171.781 34.6738 171.936 34.738 172.05 34.8523C172.165 34.9665 172.229 35.1215 172.229 35.2831ZM172.18 40.9004H171.102V36.4224H172.18V40.9004Z" fill="#000062"/>
<path d="M178.711 38.6765C178.744 39.1748 178.627 39.6714 178.374 40.1021C178.121 40.5328 177.745 40.8776 177.294 41.0918C176.843 41.3061 176.338 41.3798 175.844 41.3036C175.351 41.2273 174.891 41.0045 174.526 40.6641C174.161 40.3237 173.906 39.8814 173.795 39.3945C173.684 38.9076 173.722 38.3986 173.904 37.9336C174.086 37.4685 174.403 37.0688 174.815 36.7863C175.227 36.5037 175.714 36.3515 176.213 36.3492C176.532 36.331 176.851 36.3776 177.151 36.4859C177.451 36.5943 177.726 36.7622 177.959 36.9797C178.192 37.1971 178.379 37.4596 178.509 37.7512C178.638 38.0428 178.707 38.3575 178.711 38.6765ZM174.806 38.6765C174.802 38.9571 174.882 39.2323 175.036 39.4673C175.189 39.7023 175.409 39.8863 175.667 39.9959C175.925 40.1055 176.21 40.1358 176.486 40.0828C176.762 40.0299 177.015 39.8961 177.214 39.6986C177.414 39.501 177.55 39.2486 177.605 38.9736C177.66 38.6985 177.632 38.4132 177.525 38.1539C177.418 37.8947 177.236 37.6733 177.002 37.5179C176.768 37.3625 176.494 37.2801 176.213 37.2813C176.028 37.2763 175.844 37.3089 175.672 37.3771C175.499 37.4453 175.343 37.5477 175.211 37.6781C175.08 37.8085 174.976 37.9642 174.906 38.1358C174.837 38.3074 174.803 38.4913 174.806 38.6765Z" fill="#000062"/>
<path d="M184.749 37.9271V40.9003H183.67V38.2378C183.686 38.1016 183.67 37.9636 183.625 37.8341C183.58 37.7046 183.507 37.5868 183.411 37.4893C183.314 37.3917 183.197 37.317 183.068 37.2705C182.939 37.2239 182.802 37.2068 182.665 37.2204C182.15 37.2353 181.657 37.4341 181.276 37.7809V40.9003H180.186V36.4223H181.276V36.9889C181.799 36.5791 182.44 36.3484 183.104 36.3309C183.322 36.3068 183.542 36.3312 183.749 36.4022C183.956 36.4732 184.145 36.5891 184.302 36.7416C184.459 36.8941 184.581 37.0795 184.658 37.2844C184.735 37.4893 184.766 37.7088 184.749 37.9271Z" fill="#000062"/>
<path d="M72.1961 11.0349C72.3738 11.0349 72.5443 10.9643 72.67 10.8386C72.7956 10.713 72.8662 10.5425 72.8662 10.3648C72.8662 10.187 72.7956 10.0166 72.67 9.89087C72.5443 9.76519 72.3738 9.69458 72.1961 9.69458C72.0183 9.69458 71.8479 9.76519 71.7222 9.89087C71.5965 10.0166 71.5259 10.187 71.5259 10.3648C71.5259 10.5425 71.5965 10.713 71.7222 10.8386C71.8479 10.9643 72.0183 11.0349 72.1961 11.0349Z" fill="#000062"/>
<path d="M70.3805 11.0349C70.5125 11.0325 70.6409 10.9912 70.7495 10.9161C70.858 10.841 70.942 10.7356 70.9909 10.6129C71.0398 10.4903 71.0513 10.3559 71.0241 10.2267C70.9969 10.0975 70.9321 9.97925 70.8379 9.88674C70.7437 9.79423 70.6243 9.7316 70.4946 9.70672C70.365 9.68183 70.2309 9.69579 70.1091 9.74686C69.9874 9.79792 69.8834 9.8838 69.8103 9.99373C69.7372 10.1037 69.6982 10.2327 69.6981 10.3648C69.6973 10.454 69.7144 10.5426 69.7486 10.6251C69.7827 10.7076 69.8332 10.7823 69.8969 10.8449C69.9606 10.9075 70.0362 10.9565 70.1193 10.9892C70.2024 11.0218 70.2912 11.0374 70.3805 11.0349Z" fill="#000062"/>
<path d="M74.8585 13.9653C74.2999 14.1729 73.7053 14.2662 73.1099 14.2395H69.3448C68.2969 14.2395 67.6693 13.8252 67.6693 12.8138C67.6795 12.4381 67.7389 12.0653 67.846 11.705L66.8347 11.5161C66.6685 12.0406 66.5802 12.5866 66.5727 13.1367C66.5727 14.8609 67.6998 15.3849 69.2717 15.3849H72.9272C73.9735 15.4367 75.0173 15.2405 75.9734 14.8122V10.7241H74.8646L74.8585 13.9653Z" fill="#000062"/>
<path d="M83.8023 11.0044C83.4826 10.9946 83.1645 11.0514 82.868 11.1713C82.5715 11.2911 82.3033 11.4714 82.0803 11.7007C81.8574 11.93 81.6846 12.2031 81.573 12.5028C81.4615 12.8025 81.4135 13.1222 81.4323 13.4414C81.4319 13.6464 81.4544 13.8507 81.4993 14.0507C81.1111 14.201 80.697 14.2734 80.2808 14.2639C79.7833 14.2726 79.2901 14.1707 78.8369 13.9654V8.58569H77.7281V14.1177C77.7092 14.2757 77.7424 14.4356 77.8227 14.5731C77.9029 14.7105 78.0259 14.818 78.1728 14.8792C78.7477 15.1886 79.3868 15.3595 80.0394 15.3786C80.6919 15.3976 81.3399 15.2642 81.9319 14.9889C82.2463 15.3676 82.6706 15.6394 83.1462 15.7665C83.6217 15.8937 84.125 15.87 84.5865 15.6988C85.048 15.5276 85.4449 15.2172 85.7225 14.8107C86 14.4041 86.1444 13.9214 86.1357 13.4292C86.1524 13.1141 86.1042 12.7989 85.9941 12.5032C85.8839 12.2075 85.7142 11.9376 85.4954 11.7103C85.2766 11.4829 85.0134 11.3029 84.7221 11.1815C84.4309 11.0601 84.1178 10.9998 83.8023 11.0044ZM83.8023 14.7757C83.6297 14.7762 83.4589 14.741 83.3007 14.6722C83.1424 14.6034 83.0001 14.5026 82.8828 14.3761C82.7654 14.2496 82.6756 14.1001 82.6189 13.9372C82.5622 13.7742 82.5398 13.6013 82.5533 13.4292C82.536 13.2532 82.5557 13.0755 82.6112 12.9075C82.6667 12.7396 82.7567 12.5851 82.8755 12.4541C82.9943 12.323 83.1392 12.2183 83.301 12.1466C83.4627 12.0749 83.6376 12.0379 83.8145 12.0379C83.9913 12.0379 84.1663 12.0749 84.328 12.1466C84.4897 12.2183 84.6346 12.323 84.7534 12.4541C84.8722 12.5851 84.9622 12.7396 85.0177 12.9075C85.0732 13.0755 85.0929 13.2532 85.0756 13.4292C85.0885 13.6047 85.0644 13.7809 85.0048 13.9464C84.9452 14.112 84.8514 14.2631 84.7296 14.3901C84.6079 14.517 84.4607 14.617 84.2978 14.6834C84.1349 14.7498 83.9598 14.7813 83.784 14.7757H83.8023Z" fill="#000062"/>
<path d="M111.925 13.941C111.472 14.1461 110.979 14.2481 110.481 14.2395C110.083 14.2452 109.688 14.1727 109.318 14.0263C109.366 13.8268 109.388 13.6221 109.385 13.417C109.401 13.0969 109.352 12.7768 109.241 12.4763C109.129 12.1757 108.958 11.9009 108.737 11.6685C108.516 11.4362 108.251 11.2512 107.956 11.1248C107.662 10.9984 107.344 10.9332 107.024 10.9332C106.703 10.9332 106.386 10.9984 106.092 11.1248C105.797 11.2512 105.531 11.4362 105.31 11.6685C105.09 11.9009 104.918 12.1757 104.807 12.4763C104.696 12.7768 104.647 13.0969 104.663 13.417C104.661 13.6218 104.681 13.8261 104.724 14.0263C104.357 14.1682 103.966 14.2385 103.572 14.2334H101.623C101.96 14.0172 102.239 13.7212 102.434 13.3716C102.63 13.0219 102.736 12.6295 102.744 12.229C102.744 11.0105 101.775 10.4013 100.398 10.4013C99.5502 10.4169 98.7168 10.6253 97.9612 11.0105L97.7723 11.8695L99.2711 14.2091H97.291C96.7953 14.2198 96.3037 14.1177 95.8532 13.9105V8.58569H94.7444V13.941C94.2917 14.1481 93.7981 14.2501 93.3005 14.2395H91.887V11.3212C91.2533 10.9949 90.5526 10.8198 89.8399 10.8095C88.2802 10.8095 87.2872 11.7294 87.2872 13.1124C87.2872 14.4954 88.2437 15.3849 89.9679 15.3849H90.7782C90.7233 16.2866 90.2542 16.7435 89.1697 16.7435C88.657 16.7409 88.1484 16.6524 87.6649 16.4816L87.4699 17.5356C88.0065 17.7133 88.568 17.8038 89.1332 17.8036C90.6319 17.8036 91.7591 17.1335 91.8748 15.3666H93.3005C93.9974 15.3692 94.6833 15.193 95.2927 14.8549C95.8705 15.1731 96.5159 15.3486 97.1753 15.3666H103.713C104.237 15.3571 104.751 15.2212 105.211 14.9706C105.44 15.2361 105.723 15.4491 106.042 15.5951C106.361 15.7411 106.707 15.8167 107.057 15.8167C107.408 15.8167 107.754 15.7411 108.073 15.5951C108.391 15.4491 108.675 15.2361 108.903 14.9706C109.574 15.3051 110.33 15.4294 111.072 15.3273C111.815 15.2251 112.509 14.9012 113.065 14.3979V8.58569H111.956L111.925 13.941ZM90.7782 14.2395H89.7912C88.9809 14.2395 88.3838 13.8191 88.3838 13.021C88.3821 12.8456 88.4183 12.6718 88.4899 12.5117C88.5615 12.3515 88.6668 12.2087 88.7987 12.093C88.9306 11.9773 89.0859 11.8915 89.2541 11.8413C89.4222 11.7912 89.5992 11.778 89.7729 11.8025C90.1213 11.8014 90.4653 11.8806 90.7782 12.034V14.2395ZM100.289 14.0689L99.0396 11.8086C99.4613 11.6039 99.9233 11.4957 100.392 11.4918C101.178 11.4918 101.665 11.8452 101.665 12.4849C101.618 12.86 101.458 13.2119 101.207 13.4946C100.956 13.7772 100.625 13.9774 100.258 14.0689H100.289ZM107.039 14.7757C106.869 14.772 106.702 14.7338 106.547 14.6631C106.392 14.5925 106.254 14.4911 106.14 14.365C106.026 14.239 105.938 14.091 105.884 13.9301C105.829 13.7691 105.807 13.5987 105.821 13.4292C105.803 13.2532 105.823 13.0755 105.878 12.9075C105.934 12.7396 106.024 12.5851 106.143 12.4541C106.262 12.323 106.406 12.2183 106.568 12.1466C106.73 12.0749 106.905 12.0379 107.082 12.0379C107.259 12.0379 107.433 12.0749 107.595 12.1466C107.757 12.2183 107.902 12.323 108.021 12.4541C108.139 12.5851 108.229 12.7396 108.285 12.9075C108.34 13.0755 108.36 13.2532 108.343 13.4292C108.356 13.6084 108.331 13.7885 108.269 13.9571C108.207 14.1258 108.109 14.2791 107.983 14.4068C107.856 14.5344 107.704 14.6334 107.536 14.6971C107.368 14.7607 107.188 14.7875 107.009 14.7757H107.039Z" fill="#000062"/>
<path d="M116.025 8.58569H114.917V15.3849H116.025V8.58569Z" fill="#000062"/>
<path d="M123.3 9.82253C123.478 9.82253 123.648 9.75192 123.774 9.62624C123.899 9.50056 123.97 9.33009 123.97 9.15235C123.97 8.97461 123.899 8.80415 123.774 8.67847C123.648 8.55279 123.478 8.48218 123.3 8.48218C123.122 8.48218 122.952 8.55279 122.826 8.67847C122.7 8.80415 122.63 8.97461 122.63 9.15235C122.63 9.33009 122.7 9.50056 122.826 9.62624C122.952 9.75192 123.122 9.82253 123.3 9.82253Z" fill="#000062"/>
<path d="M121.478 9.8225C121.611 9.8213 121.74 9.78097 121.849 9.7066C121.958 9.63224 122.043 9.52716 122.093 9.4046C122.143 9.28204 122.155 9.14748 122.129 9.01789C122.102 8.88829 122.038 8.76945 121.944 8.67633C121.85 8.58321 121.731 8.51999 121.601 8.49462C121.471 8.46925 121.336 8.48287 121.214 8.53377C121.092 8.58467 120.988 8.67056 120.915 8.78064C120.841 8.89071 120.802 9.02004 120.802 9.15232C120.801 9.24108 120.818 9.3291 120.852 9.41118C120.886 9.49327 120.936 9.56775 120.999 9.63023C121.062 9.6927 121.137 9.74191 121.219 9.77493C121.301 9.80796 121.39 9.82413 121.478 9.8225Z" fill="#000062"/>
<path d="M126.937 16.0612C126.804 16.06 126.674 16.0983 126.563 16.1712C126.452 16.2441 126.365 16.3483 126.314 16.4706C126.262 16.593 126.248 16.7279 126.273 16.8583C126.298 16.9887 126.362 17.1087 126.455 17.203C126.548 17.2974 126.668 17.3618 126.798 17.3882C126.928 17.4145 127.063 17.4016 127.186 17.3511C127.309 17.3005 127.414 17.2147 127.488 17.1043C127.562 16.994 127.601 16.8642 127.601 16.7314C127.602 16.6436 127.585 16.5566 127.552 16.4754C127.519 16.3941 127.471 16.3202 127.409 16.2578C127.347 16.1955 127.274 16.1461 127.193 16.1123C127.112 16.0786 127.025 16.0612 126.937 16.0612Z" fill="#000062"/>
<path d="M128.753 16.0612C128.587 16.077 128.433 16.1542 128.321 16.2775C128.208 16.4009 128.146 16.5616 128.146 16.7283C128.146 16.895 128.208 17.0557 128.321 17.179C128.433 17.3024 128.587 17.3795 128.753 17.3954C128.846 17.4043 128.939 17.3937 129.028 17.3642C129.117 17.3347 129.198 17.287 129.267 17.2242C129.336 17.1614 129.392 17.0848 129.429 16.9994C129.467 16.914 129.487 16.8217 129.487 16.7283C129.487 16.6349 129.467 16.5425 129.429 16.4571C129.392 16.3717 129.336 16.2952 129.267 16.2323C129.198 16.1695 129.117 16.1219 129.028 16.0924C128.939 16.0629 128.846 16.0523 128.753 16.0612Z" fill="#000062"/>
<path d="M131.836 9.87735C131.922 9.87816 132.009 9.86173 132.089 9.82903C132.17 9.79632 132.243 9.74798 132.305 9.6868C132.366 9.62562 132.415 9.55281 132.449 9.47258C132.482 9.39235 132.5 9.30629 132.5 9.21936C132.502 9.13034 132.487 9.04172 132.454 8.95869C132.422 8.87566 132.374 8.79989 132.312 8.73579C132.25 8.67169 132.176 8.62056 132.094 8.58538C132.013 8.55021 131.925 8.53169 131.836 8.53091C131.745 8.5301 131.655 8.54735 131.571 8.58166C131.487 8.61597 131.411 8.66665 131.347 8.73074C131.283 8.79483 131.232 8.87105 131.198 8.95494C131.163 9.03884 131.146 9.12873 131.147 9.21936C131.149 9.3079 131.168 9.39525 131.203 9.47636C131.239 9.55747 131.29 9.63073 131.354 9.69191C131.418 9.7531 131.494 9.80099 131.576 9.83281C131.659 9.86464 131.747 9.87978 131.836 9.87735Z" fill="#000062"/>
<path d="M138.05 9.43261C138.183 9.43381 138.313 9.39554 138.424 9.32264C138.535 9.24973 138.622 9.14549 138.673 9.02315C138.725 8.9008 138.739 8.76586 138.714 8.63546C138.689 8.50506 138.625 8.38508 138.532 8.29074C138.439 8.19641 138.319 8.13197 138.189 8.10562C138.059 8.07926 137.924 8.09217 137.801 8.14271C137.678 8.19325 137.573 8.27914 137.499 8.38948C137.425 8.49982 137.386 8.62963 137.386 8.76243C137.385 8.85015 137.402 8.93716 137.435 9.01844C137.468 9.09971 137.516 9.17364 137.578 9.23595C137.64 9.29827 137.713 9.34773 137.794 9.38148C137.875 9.41523 137.962 9.43261 138.05 9.43261Z" fill="#000062"/>
<path d="M136.234 9.43251C136.412 9.43251 136.582 9.3619 136.708 9.23622C136.834 9.11054 136.904 8.94008 136.904 8.76234C136.904 8.5846 136.834 8.41413 136.708 8.28845C136.582 8.16277 136.412 8.09216 136.234 8.09216C136.057 8.09216 135.886 8.16277 135.76 8.28845C135.635 8.41413 135.564 8.5846 135.564 8.76234C135.564 8.94008 135.635 9.11054 135.76 9.23622C135.886 9.3619 136.057 9.43251 136.234 9.43251Z" fill="#000062"/>
<path d="M141.529 9.87736C141.705 9.87736 141.874 9.80739 141.998 9.68285C142.123 9.55831 142.193 9.3894 142.193 9.21328C142.193 9.03715 142.123 8.86824 141.998 8.7437C141.874 8.61916 141.705 8.54919 141.529 8.54919C141.353 8.54919 141.184 8.61916 141.059 8.7437C140.935 8.86824 140.865 9.03715 140.865 9.21328C140.865 9.3894 140.935 9.55831 141.059 9.68285C141.184 9.80739 141.353 9.87736 141.529 9.87736Z" fill="#000062"/>
<path d="M141.913 13.9958C141.403 14.1786 140.863 14.2614 140.322 14.2395H138.549C138.846 14.0277 139.088 13.7491 139.256 13.4263C139.424 13.1034 139.514 12.7454 139.518 12.3813C139.518 11.1019 138.556 10.2489 137.16 10.2489C135.765 10.2489 134.796 11.0897 134.796 12.3813C134.798 12.7426 134.883 13.0986 135.046 13.4211C135.209 13.7437 135.445 14.0238 135.735 14.2395H133.834C133.34 14.2495 132.851 14.1474 132.402 13.941V10.7241H131.293V13.941C130.841 14.148 130.347 14.2501 129.849 14.2395C129.356 14.2501 128.866 14.148 128.418 13.941V10.7241H127.309V13.941C126.856 14.1474 126.362 14.2494 125.865 14.2395H124.445V11.1445C123.818 10.8129 123.12 10.6374 122.41 10.6327C120.881 10.6327 119.864 11.5466 119.864 13.0088C119.864 14.471 120.918 15.3849 122.538 15.3849H125.877C126.57 15.3837 127.251 15.2077 127.857 14.8731C128.468 15.2075 129.153 15.3827 129.849 15.3827C130.546 15.3827 131.231 15.2075 131.842 14.8731C132.449 15.211 133.133 15.3872 133.828 15.3849H140.487C141.387 15.4022 142.274 15.1657 143.046 14.7025V10.7241H141.937L141.913 13.9958ZM123.318 14.2395H122.356C122.18 14.2547 122.004 14.2339 121.837 14.1782C121.67 14.1225 121.517 14.0331 121.386 13.9156C121.255 13.7982 121.149 13.6551 121.076 13.4952C121.002 13.3354 120.963 13.1621 120.959 12.9863C120.955 12.8104 120.987 12.6357 121.054 12.4728C121.12 12.31 121.22 12.1625 121.345 12.0396C121.471 11.9166 121.621 11.8208 121.785 11.758C121.95 11.6952 122.125 11.6668 122.301 11.6745C122.653 11.6718 123.002 11.751 123.318 11.9061V14.2395ZM137.136 14.0872C136.793 13.98 136.49 13.7744 136.264 13.496C136.037 13.2175 135.898 12.8786 135.863 12.5214C135.885 12.2044 136.026 11.9077 136.259 11.691C136.491 11.4743 136.797 11.3537 137.115 11.3537C137.432 11.3537 137.738 11.4743 137.971 11.691C138.203 11.9077 138.345 12.2044 138.367 12.5214C138.335 12.8734 138.202 13.2087 137.983 13.4866C137.765 13.7645 137.471 13.9731 137.136 14.0872Z" fill="#000062"/>
<path d="M143.356 8.54919C143.18 8.54919 143.011 8.61916 142.887 8.7437C142.762 8.86824 142.692 9.03715 142.692 9.21328C142.692 9.3894 142.762 9.55831 142.887 9.68285C143.011 9.80739 143.18 9.87736 143.356 9.87736C143.533 9.87736 143.701 9.80739 143.826 9.68285C143.951 9.55831 144.02 9.3894 144.02 9.21328C144.02 9.03715 143.951 8.86824 143.826 8.7437C143.701 8.61916 143.533 8.54919 143.356 8.54919Z" fill="#000062"/>
<path d="M144.392 13.088C144.392 14.4101 145.349 15.3605 147.073 15.3605H147.883C147.828 16.2622 147.359 16.7192 146.275 16.7192C145.762 16.7166 145.253 16.628 144.77 16.4572L144.575 17.5112C145.111 17.689 145.673 17.7795 146.238 17.7793C147.828 17.7793 148.992 17.0238 148.992 15.0315V11.3212C148.358 10.9949 147.658 10.8198 146.945 10.8094C145.403 10.8094 144.392 11.7294 144.392 13.088ZM147.883 14.2152H146.896C146.086 14.2152 145.489 13.7948 145.489 12.9967C145.487 12.8212 145.523 12.6475 145.595 12.4873C145.666 12.3271 145.772 12.1843 145.904 12.0686C146.036 11.9529 146.191 11.8671 146.359 11.8169C146.527 11.7668 146.704 11.7536 146.878 11.7782C147.226 11.777 147.57 11.8563 147.883 12.0097V14.2152Z" fill="#000062"/>
<path d="M158.527 11.0349C158.704 11.0349 158.875 10.9643 159.001 10.8386C159.126 10.713 159.197 10.5425 159.197 10.3648C159.197 10.187 159.126 10.0166 159.001 9.89087C158.875 9.76519 158.704 9.69458 158.527 9.69458C158.349 9.69458 158.179 9.76519 158.053 9.89087C157.927 10.0166 157.857 10.187 157.857 10.3648C157.857 10.5425 157.927 10.713 158.053 10.8386C158.179 10.9643 158.349 11.0349 158.527 11.0349Z" fill="#000062"/>
<path d="M156.711 11.0349C156.843 11.0325 156.972 10.9912 157.08 10.9161C157.189 10.841 157.273 10.7356 157.322 10.6129C157.37 10.4903 157.382 10.3559 157.355 10.2267C157.328 10.0975 157.263 9.97925 157.169 9.88674C157.074 9.79423 156.955 9.7316 156.825 9.70672C156.696 9.68183 156.562 9.69579 156.44 9.74686C156.318 9.79792 156.214 9.8838 156.141 9.99373C156.068 10.1037 156.029 10.2327 156.029 10.3648C156.028 10.454 156.045 10.5426 156.079 10.6251C156.113 10.7076 156.164 10.7823 156.228 10.8449C156.291 10.9075 156.367 10.9565 156.45 10.9892C156.533 11.0218 156.622 11.0374 156.711 11.0349Z" fill="#000062"/>
<path d="M161.189 13.9653C160.631 14.1729 160.036 14.2662 159.441 14.2395H155.675C154.628 14.2395 154 13.8252 154 12.8138C154.01 12.4381 154.07 12.0653 154.177 11.705L153.165 11.5161C152.999 12.0406 152.911 12.5866 152.903 13.1367C152.903 14.8609 154.03 15.3849 155.602 15.3849H159.258C160.294 15.4319 161.327 15.2358 162.274 14.8122V10.7241H161.165L161.189 13.9653Z" fill="#000062"/>
<path d="M167.927 13.8862C167.511 14.1264 167.037 14.2485 166.557 14.2395L165.515 9.77373H164.412L165.436 14.2395H163.65V15.3849H166.508C167.441 15.3923 168.342 15.0462 169.03 14.4162V8.58569H167.927V13.8862Z" fill="#000062"/>
<path d="M183.993 9.87736C184.169 9.87736 184.338 9.80739 184.463 9.68285C184.587 9.55831 184.657 9.3894 184.657 9.21328C184.657 9.03715 184.587 8.86824 184.463 8.7437C184.338 8.61916 184.169 8.54919 183.993 8.54919C183.817 8.54919 183.648 8.61916 183.524 8.7437C183.399 8.86824 183.329 9.03715 183.329 9.21328C183.329 9.3894 183.399 9.55831 183.524 9.68285C183.648 9.80739 183.817 9.87736 183.993 9.87736Z" fill="#000062"/>
<path d="M184.389 13.9958C183.928 14.1702 183.438 14.2529 182.945 14.2395H181.587V12.9906C181.587 11.2664 180.606 10.4195 179.266 10.4195C178.084 10.4195 177.091 11.0897 176.018 12.1985V11.0775H174.909V14.2395H173.466C172.968 14.2483 172.475 14.1463 172.022 13.941V8.58569H170.913V14.1177C170.893 14.2766 170.927 14.4375 171.008 14.5752C171.09 14.713 171.215 14.8199 171.364 14.8792C171.979 15.2059 172.665 15.3794 173.362 15.3849H183.012C183.888 15.3911 184.748 15.155 185.498 14.7026V10.7242H184.389V13.9958ZM180.49 14.2395H176.018V13.5572C177.2 12.1803 178.12 11.4979 179.065 11.4979C180.131 11.4979 180.466 12.3265 180.466 13.1673L180.49 14.2395Z" fill="#000062"/>
<path d="M185.821 8.54919C185.645 8.54919 185.476 8.61916 185.352 8.7437C185.227 8.86824 185.157 9.03715 185.157 9.21328C185.157 9.3894 185.227 9.55831 185.352 9.68285C185.476 9.80739 185.645 9.87736 185.821 9.87736C185.997 9.87736 186.166 9.80739 186.291 9.68285C186.415 9.55831 186.485 9.3894 186.485 9.21328C186.485 9.03715 186.415 8.86824 186.291 8.7437C186.166 8.61916 185.997 8.54919 185.821 8.54919Z" fill="#000062"/>
<path d="M191.122 13.8862C190.708 14.1273 190.236 14.2496 189.757 14.2395L188.709 9.77373H187.612L188.636 14.2395H186.851V15.3849H189.708C190.641 15.3923 191.542 15.0462 192.23 14.4162V8.58569H191.122V13.8862Z" fill="#000062"/>
<path d="M195.222 8.58569H194.113V15.3849H195.222V8.58569Z" fill="#000062"/>
<path d="M200.681 9.82254C200.813 9.82014 200.941 9.7788 201.05 9.70372C201.158 9.62863 201.242 9.52315 201.291 9.4005C201.34 9.27785 201.351 9.1435 201.324 9.01431C201.297 8.88512 201.232 8.76685 201.138 8.67434C201.044 8.58183 200.924 8.5192 200.795 8.49431C200.665 8.46943 200.531 8.48339 200.409 8.53445C200.288 8.58552 200.184 8.6714 200.11 8.78133C200.037 8.89126 199.998 9.02034 199.998 9.15236C199.997 9.24164 200.015 9.33018 200.049 9.41267C200.083 9.49517 200.133 9.56994 200.197 9.6325C200.261 9.69506 200.336 9.74413 200.419 9.77679C200.503 9.80944 200.591 9.825 200.681 9.82254Z" fill="#000062"/>
<path d="M202.496 9.8225C202.629 9.82371 202.759 9.78543 202.87 9.71253C202.981 9.63963 203.068 9.53539 203.12 9.41304C203.171 9.29069 203.186 9.15575 203.16 9.02535C203.135 8.89495 203.072 8.77497 202.978 8.68064C202.885 8.5863 202.765 8.52186 202.635 8.49551C202.505 8.46915 202.37 8.48206 202.247 8.5326C202.124 8.58314 202.019 8.66903 201.946 8.77937C201.872 8.88971 201.832 9.01952 201.832 9.15232C201.832 9.32902 201.902 9.49856 202.026 9.62407C202.151 9.74958 202.32 9.82089 202.496 9.8225Z" fill="#000062"/>
<path d="M208.028 9.134H207.486C207.066 9.134 206.877 8.93904 206.877 8.71362C206.875 8.66676 206.883 8.62004 206.9 8.5764C206.917 8.53276 206.943 8.49312 206.976 8.45996C207.01 8.4268 207.049 8.40083 207.093 8.38368C207.137 8.36652 207.183 8.35855 207.23 8.36026C207.336 8.36171 207.437 8.40058 207.516 8.46992L207.925 8.03735C207.719 7.83798 207.444 7.72654 207.157 7.72664C207.042 7.71996 206.927 7.73696 206.819 7.7766C206.711 7.81623 206.612 7.87766 206.529 7.95706C206.445 8.03646 206.379 8.13214 206.334 8.23818C206.289 8.34422 206.267 8.45835 206.268 8.57349C206.268 8.77998 206.344 8.97914 206.481 9.134H206.036V9.85901H208.004L208.028 9.134Z" fill="#000062"/>
<path d="M211.94 16.0612C211.774 16.077 211.62 16.1542 211.507 16.2775C211.395 16.4009 211.333 16.5616 211.333 16.7283C211.333 16.895 211.395 17.0557 211.507 17.179C211.62 17.3024 211.774 17.3795 211.94 17.3954C212.033 17.4043 212.126 17.3937 212.215 17.3642C212.304 17.3347 212.385 17.287 212.454 17.2242C212.523 17.1614 212.579 17.0848 212.616 16.9994C212.654 16.914 212.674 16.8217 212.674 16.7283C212.674 16.6349 212.654 16.5425 212.616 16.4571C212.579 16.3717 212.523 16.2952 212.454 16.2323C212.385 16.1695 212.304 16.1219 212.215 16.0924C212.126 16.0629 212.033 16.0523 211.94 16.0612Z" fill="#000062"/>
<path d="M210.124 16.0612C209.992 16.0624 209.864 16.1024 209.755 16.1763C209.646 16.2501 209.561 16.3545 209.51 16.4763C209.46 16.5982 209.447 16.7321 209.473 16.8614C209.498 16.9906 209.562 17.1095 209.654 17.2031C209.747 17.2967 209.865 17.3608 209.994 17.3876C210.123 17.4143 210.257 17.4024 210.38 17.3534C210.502 17.3043 210.607 17.2203 210.682 17.1119C210.757 17.0034 210.798 16.8753 210.8 16.7435C210.802 16.654 210.786 16.565 210.752 16.4819C210.719 16.3988 210.669 16.3232 210.606 16.2596C210.543 16.196 210.468 16.1456 210.385 16.1116C210.302 16.0775 210.214 16.0604 210.124 16.0612Z" fill="#000062"/>
<path d="M217.386 14.2396C217.584 14.0012 217.722 13.7192 217.789 13.4168C217.856 13.1145 217.851 12.8005 217.772 12.5009C217.694 12.2013 217.545 11.9246 217.338 11.6939C217.132 11.4632 216.873 11.285 216.584 11.1741C216.295 11.0633 215.983 11.0229 215.675 11.0563C215.368 11.0898 215.072 11.1961 214.813 11.3665C214.555 11.5369 214.34 11.7665 214.188 12.0362C214.036 12.3059 213.95 12.608 213.938 12.9175C213.93 13.1604 213.971 13.4025 214.058 13.6295C214.144 13.8565 214.276 14.0639 214.444 14.2396H213.012C212.516 14.2503 212.025 14.1482 211.574 13.941V10.7242H210.465V13.941C210.013 14.1481 209.519 14.2502 209.021 14.2396C208.528 14.2496 208.038 14.1475 207.59 13.941V10.7242H206.481V13.941C206.028 14.1481 205.534 14.2502 205.037 14.2396H203.623V11.1446C202.994 10.8139 202.294 10.6384 201.582 10.6328C200.053 10.6328 199.042 11.5467 199.042 13.0089C199.042 14.4711 200.09 15.385 201.71 15.385H205.14C205.802 15.3703 206.45 15.1946 207.029 14.8732C207.64 15.2075 208.325 15.3828 209.021 15.3828C209.718 15.3828 210.403 15.2075 211.014 14.8732C211.591 15.1914 212.237 15.3669 212.896 15.385H220V13.0881C220 10.2734 218.27 9.21326 216.089 9.21326C215.699 9.21375 215.31 9.24226 214.925 9.29855V10.3221C215.301 10.2552 215.682 10.2205 216.064 10.2185C217.514 10.2185 218.897 10.8826 218.897 13.0333V14.2517L217.386 14.2396ZM202.515 14.2396H201.552C201.377 14.2548 201.2 14.234 201.033 14.1782C200.866 14.1225 200.713 14.0332 200.582 13.9157C200.451 13.7982 200.346 13.6552 200.272 13.4953C200.199 13.3354 200.159 13.1622 200.155 12.9864C200.151 12.8105 200.184 12.6357 200.25 12.4729C200.317 12.3101 200.416 12.1626 200.542 12.0396C200.668 11.9167 200.817 11.8208 200.982 11.7581C201.146 11.6953 201.321 11.6669 201.497 11.6746C201.85 11.6718 202.198 11.7511 202.515 11.9061V14.2396ZM215.918 14.2396C215.638 14.2103 215.381 14.0741 215.199 13.8596C215.018 13.645 214.926 13.3687 214.943 13.0881C214.943 12.8296 215.046 12.5816 215.229 12.3988C215.412 12.216 215.659 12.1133 215.918 12.1133C216.177 12.1133 216.425 12.216 216.607 12.3988C216.79 12.5816 216.893 12.8296 216.893 13.0881C216.913 13.3713 216.821 13.6511 216.636 13.8666C216.451 14.0822 216.189 14.2162 215.906 14.2396H215.918Z" fill="#000062"/>
<path d="M2.50402 17.1518L2.2725 17.0482C2.22376 17.1579 2.16893 17.2615 2.12019 17.365L2.33343 17.4747L2.50402 17.1518Z" fill="#00D2FF"/>
<path d="M2.437 14.0872L2.08973 13.8618L1.93132 14.0994L2.26031 14.3188C2.28468 14.2396 2.34561 14.1664 2.437 14.0872Z" fill="#00D2FF"/>
<path d="M2.33952 15.6774L2.13237 15.5616L1.97397 15.8297L2.16893 15.9394C2.22376 15.8541 2.27859 15.7627 2.33952 15.6774Z" fill="#00D2FF"/>
<path d="M3.12545 16.1343L2.86347 15.988L2.69288 16.2744L2.94877 16.4267C3.0036 16.3048 3.04625 16.2074 3.12545 16.1343Z" fill="#00D2FF"/>
<path d="M2.72944 18.6444L2.58931 18.5713C2.54666 18.6749 2.51011 18.7723 2.47355 18.8759L2.58931 18.9307C2.63196 18.8455 2.6807 18.7419 2.72944 18.6444Z" fill="#00D2FF"/>
<path d="M2.69897 14.6355L2.94877 14.8061L3.13763 14.5624L2.86956 14.3918C2.81473 14.4771 2.75381 14.5563 2.69897 14.6355Z" fill="#00D2FF"/>
<path d="M1.29161 15.0986L1.15148 15.3423L1.43174 15.5068L1.59014 15.2631L1.29161 15.0986Z" fill="#00D2FF"/>
<path d="M3.30822 12.9844L2.91831 12.6859C2.8391 12.7834 2.7599 12.8809 2.68679 12.9844L3.04625 13.2708L3.1681 13.1246C3.21143 13.0746 3.25825 13.0278 3.30822 12.9844Z" fill="#00D2FF"/>
<path d="M1.90695 18.3337L1.73636 18.2667C1.69981 18.352 1.66934 18.4434 1.63279 18.5287L1.79119 18.5957L1.90695 18.3337Z" fill="#00D2FF"/>
<path d="M5.33702 10.9983L4.87399 10.5292C4.73387 10.6632 4.59374 10.7912 4.45971 10.9313L4.89227 11.3699L5.33702 10.9983Z" fill="#00D2FF"/>
<path d="M4.44752 14.3553L4.71559 14.0568L4.37441 13.8009L4.13071 14.1055L4.44752 14.3553Z" fill="#00D2FF"/>
<path d="M4.6303 12.887L4.97148 12.558L4.60593 12.2351L4.26475 12.5885L4.6303 12.887Z" fill="#00D2FF"/>
<path d="M4.11243 15.5921L4.43534 15.8115L4.63639 15.5251L4.29521 15.2997L4.11243 15.5921Z" fill="#00D2FF"/>
<path d="M3.88092 15.0498L3.57629 14.8488L3.39961 15.1107L3.68596 15.3057L3.88092 15.0498Z" fill="#00D2FF"/>
<path d="M3.69814 13.2831L3.56411 13.4415L3.46054 13.5877L3.75298 13.8131L4.01495 13.5268L3.69814 13.2831Z" fill="#00D2FF"/>
<path d="M1.67544 16.774L1.51703 16.7009C1.46829 16.7984 1.42564 16.8959 1.383 16.9934L1.51703 17.0604C1.56577 16.9629 1.6206 16.8715 1.67544 16.774Z" fill="#00D2FF"/>
<path d="M3.54583 11.9305L3.94794 12.29L4.26475 11.9488L3.83827 11.571L3.54583 11.9305Z" fill="#00D2FF"/>
<path d="M3.91747 16.5426L3.6555 16.3842L3.47881 16.701L3.74079 16.8533L3.91747 16.5426Z" fill="#00D2FF"/>
<path d="M3.31432 17.5234L3.08889 17.4259L2.9244 17.7793L3.11936 17.8767C3.18028 17.7549 3.2473 17.6391 3.31432 17.5234Z" fill="#00D2FF"/>
<path d="M6.76267 12.4788L6.37275 12.8443L6.74439 13.2281L7.13431 12.8626L6.76267 12.4788Z" fill="#00D2FF"/>
<path d="M7.23788 11.0714L6.7383 11.4613L7.60343 12.4788C7.75575 12.3508 7.91415 12.229 8.07256 12.1071L7.23788 11.0714Z" fill="#00D2FF"/>
<path d="M1.054 18.0108L0.956522 17.962C0.92606 18.0351 0.90169 18.1083 0.871227 18.1875L0.95043 18.2179C0.980892 18.157 1.01745 18.0839 1.054 18.0108Z" fill="#00D2FF"/>
<path d="M7.1465 8.67712C6.93326 8.82334 6.72611 8.97566 6.53725 9.13406L7.01855 9.74331C7.23179 9.60928 7.43894 9.47524 7.6278 9.3473L7.1465 8.67712Z" fill="#00D2FF"/>
<path d="M5.86098 13.3561L5.55026 13.6973L5.94018 14.0445L5.97674 14.008C6.06812 13.9044 6.1656 13.8069 6.26308 13.7034L5.86098 13.3561Z" fill="#00D2FF"/>
<path d="M8.37718 7.87903C8.12739 8.03134 7.88369 8.18365 7.6339 8.34815L9.46164 11.0959L10.0709 10.7181L8.37718 7.87903Z" fill="#00D2FF"/>
<path d="M18.2775 5.23481C15.4232 5.23305 12.6018 5.84387 10.0039 7.02601L11.5757 9.99914C15.5375 8.24919 20.0238 8.10503 24.0897 9.59704L25.2473 6.4655C23.0154 5.64522 20.6554 5.2285 18.2775 5.23481Z" fill="#00D2FF"/>
<path d="M9.67488 7.19055C9.38244 7.33068 9.06563 7.4769 8.80365 7.6353L10.4913 10.511C10.7289 10.383 10.9726 10.2612 11.2163 10.1454L9.67488 7.19055Z" fill="#00D2FF"/>
<path d="M7.78012 9.56665C7.57907 9.70069 7.37192 9.84081 7.17087 9.98703L8.52949 11.7417C8.70618 11.6137 8.88895 11.4858 9.07782 11.3639L7.78012 9.56665Z" fill="#00D2FF"/>
<path d="M0.188867 17.895C0.188867 17.8341 0.237607 17.7732 0.26807 17.7123L0.0670174 17.6392C0.0670174 17.694 0.02437 17.7549 0 17.8158L0.188867 17.895Z" fill="#00D2FF"/>
<path d="M5.25782 12.8138C5.14816 12.9296 5.03849 13.0393 4.93492 13.155L5.28219 13.4657L5.61728 13.1428L5.25782 12.8138Z" fill="#00D2FF"/>
<path d="M4.79479 14.6172L5.16034 14.9036L5.42232 14.599L5.03849 14.3065L4.79479 14.6172Z" fill="#00D2FF"/>
<path d="M0.53614 16.5608L0.767655 16.6766C0.816395 16.5913 0.859043 16.506 0.90169 16.4207L0.651898 16.3049L0.53614 16.5608Z" fill="#00D2FF"/>
<path d="M6.653 10.377L6.14733 10.7852L6.55552 11.2482L7.07948 10.8887L6.653 10.377Z" fill="#00D2FF"/>
<path d="M5.59291 11.2603L5.18472 11.6441L5.56245 12.0218L5.99502 11.6745L5.59291 11.2603Z" fill="#00D2FF"/>
<path d="M6.59208 12.3021L6.20825 11.9061L5.80615 12.2778L6.1717 12.6494C6.31183 12.5276 6.45195 12.4179 6.59208 12.3021Z" fill="#00D2FF"/>
<path d="M6.45805 10.1332L5.98283 9.56055L5.48325 9.99921L5.94628 10.5293C6.0925 10.3952 6.28136 10.2612 6.45805 10.1332Z" fill="#00D2FF"/>
<path d="M30.1883 41.1684L29.8532 40.7358C29.7253 40.8272 29.5973 40.9186 29.4633 41.0039L29.8045 41.4548L30.1883 41.1684Z" fill="#7F92FF"/>
<path d="M29.5852 40.3702L29.3171 40.0168L28.9211 40.2727L29.2074 40.6566L29.5852 40.3702Z" fill="#7F92FF"/>
<path d="M30.3528 37.4581L30.0665 37.1656C29.9873 37.2449 29.902 37.3119 29.8167 37.385L30.1213 37.6835L30.3528 37.4581Z" fill="#7F92FF"/>
<path d="M28.6835 39.9621L29.0673 39.6879L28.7931 39.3224L28.3971 39.5783L28.6835 39.9621Z" fill="#7F92FF"/>
<path d="M29.0856 41.9665L28.7444 41.4547L28.2509 41.735L28.5982 42.2833C28.7627 42.1797 28.9272 42.0761 29.0856 41.9665Z" fill="#7F92FF"/>
<path d="M31.2301 40.2971L30.9255 39.9437C30.8646 39.9925 30.8036 40.0473 30.7427 40.0899L30.627 40.1813L30.9438 40.5408C31.0717 40.4616 31.1387 40.3824 31.2301 40.2971Z" fill="#7F92FF"/>
<path d="M30.4259 39.7L30.5904 39.5599L30.3467 39.2797L30.0421 39.5112L30.298 39.8036L30.4259 39.7Z" fill="#7F92FF"/>
<path d="M31.2058 36.5258L30.9621 36.3065C30.8829 36.3918 30.7976 36.4832 30.7123 36.5624L30.9803 36.7878L31.2058 36.5258Z" fill="#7F92FF"/>
<path d="M30.9438 38.0673L30.7062 37.8236C30.6331 37.8967 30.5539 37.9637 30.4747 38.0308L30.7244 38.2805L30.9438 38.0673Z" fill="#7F92FF"/>
<path d="M31.5348 38.6765L31.3215 38.4633L31.1022 38.6582L31.3215 38.8775L31.5348 38.6765Z" fill="#7F92FF"/>
<path d="M28.8662 38.1769L29.1952 38.5486L29.4938 38.2927L29.1831 37.9271C29.0795 38.0124 28.9759 38.0977 28.8662 38.1769Z" fill="#7F92FF"/>
<path d="M27.4162 41.7898L27.1116 41.2476L26.5023 41.5095L26.8192 42.1188L27.4162 41.7898Z" fill="#7F92FF"/>
<path d="M25.6555 42.8926L26.0028 43.6663C26.2404 43.5628 26.478 43.447 26.7156 43.3312L26.3683 42.6245C26.1307 42.722 25.8931 42.8073 25.6555 42.8926Z" fill="#7F92FF"/>
<path d="M23.0723 41.2111C22.8042 41.2923 22.5361 41.3654 22.2681 41.4304L23.1941 44.635C23.5231 44.5558 23.8399 44.4644 24.1628 44.367L23.0723 41.2111Z" fill="#7F92FF"/>
<path d="M28.0255 40.3885L27.7391 39.9498C27.5807 40.0412 27.4162 40.1265 27.2578 40.2057L27.5503 40.6687L28.0255 40.3885Z" fill="#7F92FF"/>
<path d="M30.036 38.9141L29.7801 38.6156C29.6765 38.7009 29.573 38.774 29.4633 38.8532L29.7375 39.1639C29.8532 39.0847 29.9385 38.9994 30.036 38.9141Z" fill="#7F92FF"/>
<path d="M28.5251 41.1136L28.2326 40.6688L27.7391 40.9308L28.0498 41.4121L28.5251 41.1136Z" fill="#7F92FF"/>
<path d="M27.928 42.6915L27.5807 42.0823C27.3797 42.1798 27.1786 42.2772 26.9715 42.3625L27.3248 43.0205L27.928 42.6915Z" fill="#7F92FF"/>
<path d="M27.1421 40.0047C27.3005 39.9133 27.4528 39.8158 27.6051 39.7183L27.3066 39.2858L26.8496 39.566L27.1421 40.0047Z" fill="#7F92FF"/>
<path d="M34.5018 36.1604L34.6785 36.27L34.7699 36.1238L34.6054 36.0081L34.5018 36.1604Z" fill="#7F92FF"/>
<path d="M33.8499 37.4581L34.0144 37.2448L33.8073 37.0864L33.6367 37.2997L33.8499 37.4581Z" fill="#7F92FF"/>
<path d="M28.2022 39.3162L28.5799 39.0421L28.2509 38.6156L28.1656 38.6765L27.8732 38.8837L28.2022 39.3162Z" fill="#7F92FF"/>
<path d="M33.9961 35.5755L33.923 35.5267L33.7951 35.7095L33.8743 35.7643L33.9961 35.5755Z" fill="#7F92FF"/>
<path d="M26.3988 41.2903C26.5876 41.1989 26.7765 41.1075 26.9654 41.0039L26.3135 39.8585L25.7773 40.1388L26.3988 41.2903Z" fill="#7F92FF"/>
<path d="M31.8455 37.0985L31.6444 36.9158C31.5713 37.0011 31.4921 37.0803 31.419 37.1595L31.6383 37.3422C31.681 37.263 31.7784 37.1838 31.8455 37.0985Z" fill="#7F92FF"/>
<path d="M24.6259 44.2146L25.4605 43.8978L24.1933 40.8516C23.9618 40.9429 23.7181 41.0222 23.4805 41.1014L24.6259 44.2146Z" fill="#7F92FF"/>
<path d="M25.5885 42.6671C25.82 42.5757 26.0515 42.4783 26.2769 42.3747L25.3021 40.3824C25.1011 40.4738 24.8939 40.5652 24.6929 40.6505L25.5885 42.6671Z" fill="#7F92FF"/>
<path d="M21.933 41.5096C17.7017 42.4473 13.2715 41.7046 9.5774 39.4381L7.83495 42.2772C12.3191 45.0325 17.7089 45.9082 22.8347 44.7142L21.933 41.5096Z" fill="#7F92FF"/>
<path d="M32.4669 37.6531L32.2902 37.5068L32.0831 37.7262L32.2598 37.8785C32.339 37.8054 32.406 37.7323 32.4669 37.6531Z" fill="#7F92FF"/>
<path d="M32.4121 36.398L32.6192 36.1299L32.4547 36.002L32.2293 36.2396L32.4121 36.398Z" fill="#7F92FF"/>
<path d="M32.2049 39.3589L31.9308 39.0847L31.7236 39.2675L32.01 39.5538C32.077 39.4868 32.144 39.4259 32.2049 39.3589Z" fill="#7F92FF"/>
<path d="M31.9308 35.5815L31.7419 35.4353L31.4921 35.7277L31.7053 35.8861C31.7846 35.7887 31.8577 35.6851 31.9308 35.5815Z" fill="#7F92FF"/>
<path d="M33.3138 35.1002L33.198 35.021L33.0396 35.2403L33.1736 35.3195C33.2163 35.2464 33.265 35.1733 33.3138 35.1002Z" fill="#7F92FF"/>
<path d="M32.7472 38.2805L33.003 38.4998L33.1797 38.2927L32.9421 38.0673L32.7472 38.2805Z" fill="#7F92FF"/>
<path d="M33.0883 36.8915L33.265 36.6417L33.1493 36.5503L32.9482 36.7879L33.0883 36.8915Z" fill="#7F92FF"/>
<path d="M32.4547 34.5032L32.2719 34.7591L32.4243 34.8504L32.5888 34.5946L32.4547 34.5032Z" fill="#7F92FF"/>
<path d="M20.6536 27.5943C20.1877 28.0608 19.5939 28.3787 18.9473 28.5077C18.3007 28.6367 17.6304 28.571 17.0211 28.3189C16.4119 28.0668 15.8911 27.6397 15.5247 27.0915C15.1583 26.5434 14.9627 25.8989 14.9627 25.2395C14.9627 24.5802 15.1583 23.9357 15.5247 23.3875C15.8911 22.8394 16.4119 22.4122 17.0211 22.1601C17.6304 21.908 18.3007 21.8423 18.9473 21.9713C19.5939 22.1003 20.1877 22.4182 20.6536 22.8848L23.0114 20.527C22.0789 19.5926 20.8902 18.9559 19.5957 18.6974C18.3013 18.4389 16.9592 18.5702 15.7394 19.0748C14.5196 19.5793 13.4769 20.4344 12.7433 21.5318C12.0096 22.6291 11.618 23.9195 11.618 25.2395C11.618 26.5596 12.0096 27.8499 12.7433 28.9473C13.4769 30.0447 14.5196 30.8997 15.7394 31.4043C16.9592 31.9088 18.3013 32.0401 19.5957 31.7816C20.8902 31.5231 22.0789 30.8864 23.0114 29.9521L20.6536 27.5943Z" fill="#000062"/>
<path d="M48.5572 27.5943C48.0913 28.0608 47.4975 28.3787 46.8509 28.5077C46.2043 28.6367 45.534 28.571 44.9248 28.3189C44.3155 28.0668 43.7947 27.6397 43.4283 27.0915C43.0619 26.5434 42.8663 25.8989 42.8663 25.2395C42.8663 24.5802 43.0619 23.9357 43.4283 23.3875C43.7947 22.8394 44.3155 22.4122 44.9248 22.1601C45.534 21.908 46.2043 21.8423 46.8509 21.9713C47.4975 22.1003 48.0913 22.4182 48.5572 22.8848L50.915 20.527C49.9825 19.5926 48.7938 18.9559 47.4994 18.6974C46.2049 18.4389 44.8628 18.5702 43.643 19.0748C42.4232 19.5793 41.3805 20.4344 40.6469 21.5318C39.9132 22.6291 39.5216 23.9195 39.5216 25.2395C39.5216 26.5596 39.9132 27.8499 40.6469 28.9473C41.3805 30.0447 42.4232 30.8997 43.643 31.4043C44.8628 31.9088 46.2049 32.0401 47.4994 31.7816C48.7938 31.5231 49.9825 30.8864 50.915 29.9521L48.5572 27.5943Z" fill="#000062"/>
<path d="M27.8854 19.2415H24.5528V31.2376H27.8854V19.2415Z" fill="#000062"/>
<path d="M38.6934 19.2415H29.7923V22.574H34.4835L32.5766 23.6646V31.2376H35.9092V22.574H38.6934V19.2415Z" fill="#000062"/>
<path d="M11.661 32.8278L11.3138 32.5841L10.9848 32.9253C11.0944 33.035 11.2041 33.1446 11.3199 33.2482L11.661 32.8278Z" fill="#5E1AD5"/>
<path d="M10.6009 31.9017L10.3207 32.1454C10.4182 32.2734 10.5217 32.3891 10.6253 32.511L10.936 32.2246C10.8203 32.1211 10.7106 32.0114 10.6009 31.9017Z" fill="#5E1AD5"/>
<path d="M11.9718 34.1254L11.5757 33.8756L11.2772 34.2533L11.6732 34.558L11.9718 34.1254Z" fill="#5E1AD5"/>
<path d="M9.47383 32.0479L9.20576 31.7189L9.06563 31.8164C9.14483 31.9382 9.22403 32.054 9.30933 32.1697L9.47383 32.0479Z" fill="#5E1AD5"/>
<path d="M11.0518 33.5223L10.668 33.2238L10.4182 33.4857C10.5339 33.6076 10.6558 33.7233 10.7776 33.833L11.0518 33.5223Z" fill="#5E1AD5"/>
<path d="M10.0222 33.0654L10.2476 32.8522C10.1318 32.7425 10.0161 32.6328 9.9003 32.511L9.69925 32.6877C9.80282 32.8156 9.91249 32.9436 10.0222 33.0654Z" fill="#5E1AD5"/>
<path d="M23.8399 33.5649C22.1944 34.6657 20.2572 35.2492 18.2775 35.2404C17.6644 35.2429 17.0525 35.1878 16.4497 35.0759L15.8405 38.3475C16.6444 38.4959 17.46 38.5713 18.2775 38.573C20.907 38.5755 23.4784 37.7997 25.6677 36.3431L23.8399 33.5649Z" fill="#5E1AD5"/>
<path d="M7.85322 32.6937L7.65826 32.8339L7.92024 33.1933L8.13348 33.0288C8.036 32.9313 7.92024 32.8156 7.85322 32.6937Z" fill="#5E1AD5"/>
<path d="M15.5237 34.8505L14.622 38.0307C14.8535 38.1039 15.0789 38.1709 15.3104 38.2318L15.5602 38.2866L16.2121 35.0211C15.9806 34.9723 15.7491 34.9114 15.5237 34.8505Z" fill="#5E1AD5"/>
<path d="M8.62697 33.6198L8.39546 33.8208C8.51122 33.9609 8.62697 34.1011 8.74882 34.2351L9.00471 34.0036L8.62697 33.6198Z" fill="#5E1AD5"/>
<path d="M11.7768 33.6076L12.1423 33.8818L12.4896 33.3944L12.1302 33.1934L11.7768 33.6076Z" fill="#5E1AD5"/>
<path d="M12.648 35.1733L12.9587 34.6128L12.4652 34.4117L12.1484 34.9052C12.3129 34.9844 12.4774 35.0758 12.648 35.1733Z" fill="#5E1AD5"/>
<path d="M8.80366 32.5475L8.52949 32.2063L8.39546 32.3038C8.47466 32.4256 8.55996 32.5475 8.64525 32.6632L8.80366 32.5475Z" fill="#5E1AD5"/>
<path d="M10.2171 31.4934C10.1257 31.3899 10.0343 31.2863 9.94904 31.1766L9.7419 31.3289C9.81501 31.4447 9.89421 31.5605 9.97341 31.6701L10.2171 31.4934Z" fill="#5E1AD5"/>
<path d="M13.2512 36.7086L12.5749 36.4344L12.2703 37.0437C12.5018 37.1716 12.7333 37.2874 12.9648 37.4032L13.2512 36.7086Z" fill="#5E1AD5"/>
<path d="M14.4758 37.0925C14.2138 37.0255 13.9518 36.9524 13.6959 36.8671L13.4035 37.586C13.6716 37.7017 13.9457 37.8053 14.2199 37.9028L14.4758 37.0925Z" fill="#5E1AD5"/>
<path d="M13.6228 35.8314C13.4096 35.7644 13.2024 35.6852 13.0136 35.606L12.7272 36.1726C12.9425 36.2822 13.1557 36.3858 13.3669 36.4833L13.6228 35.8314Z" fill="#5E1AD5"/>
<path d="M15.1947 34.7469C14.9997 34.686 14.7987 34.6129 14.5854 34.5337L13.7569 36.66C14.0006 36.7575 14.2564 36.8488 14.5062 36.928L15.1947 34.7469Z" fill="#5E1AD5"/>
<path d="M12.5932 34.1863C12.7394 34.2777 12.8917 34.363 13.044 34.4483L13.3365 33.9243C13.1963 33.8451 13.0562 33.7598 12.9222 33.6685L12.5932 34.1863Z" fill="#5E1AD5"/>
<path d="M9.63224 33.4248C9.50429 33.309 9.38244 33.1872 9.26669 33.0653L9.07782 33.2237C9.18748 33.3577 9.30324 33.4918 9.419 33.6197L9.63224 33.4248Z" fill="#5E1AD5"/>
<path d="M13.0989 35.4049C13.2938 35.5024 13.4949 35.5877 13.7081 35.6669L14.2382 34.4118C14.0676 34.3387 13.9031 34.2534 13.7386 34.1742L13.0989 35.4049Z" fill="#5E1AD5"/>
<path d="M10.9665 35.5633L10.7411 35.411C10.6558 35.3622 10.5766 35.3013 10.4974 35.2465L10.1988 35.6242C10.3511 35.7521 10.5035 35.874 10.6619 35.9897L10.9665 35.5633Z" fill="#5E1AD5"/>
<path d="M10.4852 34.162L10.0831 33.8391L9.85156 34.0767L10.2354 34.4423L10.4852 34.162Z" fill="#5E1AD5"/>
<path d="M12.5201 35.4049C12.3373 35.3196 12.1606 35.2343 11.9839 35.1368L11.7037 35.5816L12.2337 35.9106L12.5201 35.4049Z" fill="#5E1AD5"/>
<path d="M9.91249 34.8078C9.77236 34.6982 9.63223 34.5763 9.49211 34.4545L9.22404 34.7408L9.63223 35.1307L9.91249 34.8078Z" fill="#5E1AD5"/>
<path d="M12.0753 36.197C11.8865 36.1056 11.6915 36.002 11.5087 35.8923L11.198 36.3797C11.3869 36.5077 11.5757 36.6295 11.7707 36.7453L12.0753 36.197Z" fill="#5E1AD5"/>
<path d="M11.198 35.2282L11.4722 34.8382C11.326 34.7529 11.1797 34.6555 11.0335 34.558L10.7654 34.8931L10.9787 35.0698L11.198 35.2282Z" fill="#5E1AD5"/>
<path d="M16.8397 14.2395L16.8092 13.9714C16.6325 13.9714 16.4558 14.008 16.2791 14.0385L16.3279 14.3553C16.4985 14.3065 16.6691 14.27 16.8397 14.2395Z" fill="#0000FF"/>
<path d="M16.9615 15.1534L16.9128 14.7878L16.4071 14.8488L16.4741 15.2631C16.6325 15.2204 16.797 15.1839 16.9615 15.1534Z" fill="#0000FF"/>
<path d="M9.97342 14.867L10.5157 15.525C10.7045 15.3483 10.9056 15.1838 11.1249 15.0193L10.6741 14.3735C10.4243 14.5319 10.1988 14.6964 9.97342 14.867Z" fill="#0000FF"/>
<path d="M12.5201 15.1412L12.185 14.5807C11.99 14.6964 11.789 14.8122 11.5757 14.9401L11.9657 15.5494C12.185 15.3971 12.3434 15.263 12.5201 15.1412Z" fill="#0000FF"/>
<path d="M16.0111 12.3143L16.0659 12.6677C16.2487 12.625 16.4376 12.5885 16.6264 12.558L16.5899 12.2412L16.0111 12.3143Z" fill="#0000FF"/>
<path d="M13.0928 13.7339L12.8552 13.1978C12.648 13.283 12.4409 13.3805 12.2459 13.478L12.5384 14.0446C12.715 13.9349 12.8978 13.8314 13.0928 13.7339Z" fill="#0000FF"/>
<path d="M12.0631 14.3065L11.722 13.6973C11.5026 13.8191 11.2833 13.9471 11.0701 14.0811L11.4783 14.6903C11.6671 14.599 11.8621 14.4649 12.0631 14.3065Z" fill="#0000FF"/>
<path d="M17.3575 12.1864V12.4544L17.8632 12.4118V12.1742L17.3575 12.1864Z" fill="#0000FF"/>
<path d="M17.9119 13.2464V13.088H17.4184V13.2891C17.5829 13.2708 17.7474 13.2586 17.9119 13.2464Z" fill="#0000FF"/>
<path d="M9.65661 15.1107C9.50429 15.2326 9.34589 15.3666 9.19967 15.5006C9.05345 15.6347 9.04736 15.6408 8.96815 15.72L11.3138 18.0839C11.4722 17.9315 11.6367 17.7853 11.8012 17.6391L9.65661 15.1107Z" fill="#0000FF"/>
<path d="M17.985 14.995V14.7452C17.8266 14.7452 17.6682 14.7452 17.5159 14.7452V15.0499L17.985 14.995Z" fill="#0000FF"/>
<path d="M16.7361 13.3988L16.6995 13.1429C16.5167 13.1429 16.334 13.1673 16.1512 13.2161L16.1999 13.5085C16.3766 13.4658 16.5533 13.4293 16.7361 13.3988Z" fill="#0000FF"/>
<path d="M17.9485 14.0811V13.9166C17.784 13.9166 17.6256 13.9166 17.4611 13.9166V14.1299C17.6256 14.1116 17.784 14.0933 17.9485 14.0811Z" fill="#0000FF"/>
<path d="M15.414 12.8261L15.3287 12.4362C15.1338 12.4727 14.9449 12.5154 14.756 12.5641L14.8718 12.9906L15.414 12.8261Z" fill="#0000FF"/>
<path d="M15.7917 14.5076L15.7125 14.1421L15.213 14.2639L15.3165 14.666L15.7917 14.5076Z" fill="#0000FF"/>
<path d="M15.9928 15.3971L15.8892 14.9463C15.7308 14.9768 15.5785 15.0133 15.4201 15.056L15.5541 15.5434C15.7004 15.4906 15.8466 15.4418 15.9928 15.3971Z" fill="#0000FF"/>
<path d="M12.6297 15.3423C12.4473 15.4446 12.2704 15.5565 12.0997 15.6774L12.8673 16.841C13.0136 16.7436 13.1659 16.6522 13.3243 16.5669L12.6297 15.3423Z" fill="#0000FF"/>
<path d="M13.4583 14.5625L13.2329 14.0629L12.6785 14.3248L12.9526 14.861C13.1171 14.7574 13.2877 14.6538 13.4583 14.5625Z" fill="#0000FF"/>
<path d="M13.9092 15.5859L13.4461 15.8114L13.7203 16.3475C13.8665 16.2744 14.0066 16.2013 14.1529 16.1404L13.9092 15.5859Z" fill="#0000FF"/>
<path d="M8.74882 15.9393C6.31178 18.4336 4.95292 21.7859 4.96538 25.273H8.29798C8.29384 22.6757 9.30377 20.1793 11.1127 18.3154L8.74882 15.9393Z" fill="#0000FF"/>
<path d="M11.2285 15.196C11.0213 15.3423 10.8142 15.4885 10.6192 15.653L12.0631 17.4198C12.2154 17.298 12.3739 17.1822 12.5384 17.0664L11.2285 15.196Z" fill="#0000FF"/>
<path d="M14.0554 13.2891L14.1894 13.2404L14.0127 12.7651L13.4461 12.954L13.6411 13.4597L14.0554 13.2891Z" fill="#0000FF"/>
<path d="M13.8117 15.3727L13.5802 14.8488C13.4096 14.9219 13.239 15.0072 13.0745 15.0925L13.3608 15.653C13.5071 15.5555 13.6594 15.4641 13.8117 15.3727Z" fill="#0000FF"/>
<path d="M14.4636 14.075L14.3235 13.6486L14.2077 13.6851L13.8117 13.8313L14.0127 14.3065L14.4636 14.075Z" fill="#0000FF"/>
<path d="M15.018 15.7505L14.8413 15.2266L14.4088 15.3789L14.622 15.9333C14.7499 15.8663 14.884 15.8114 15.018 15.7505Z" fill="#0000FF"/>
<path d="M14.7377 14.9158L14.5854 14.465C14.427 14.5137 14.2686 14.5746 14.1163 14.6356L14.3052 15.123L14.7377 14.9158Z" fill="#0000FF"/>
<path d="M15.6029 13.6973L15.5298 13.3622L14.9936 13.484L15.0972 13.8618C15.2617 13.7704 15.4323 13.6973 15.6029 13.6973Z" fill="#0000FF"/>
</g>
<defs>
<clipPath id="clip0_1_280">
<rect width="220" height="49.8914" fill="white" transform="translate(0 0.293823)"/>
</clipPath>
</defs>
</svg>
